<?xml version="1.0" encoding="UTF-8"?><svg id="a" xmlns="http://www.w3.org/2000/svg" viewBox="0 0 156 168"><defs><style>.b{fill:none;stroke:#000;stroke-miterlimit:10;stroke-width:3px;}</style></defs><g><path class="b" d="M6.65,6.3s-.55,119.01,141.65,151.39"/><polygon points="135.76 167.22 134.29 164.6 147.19 157.36 139.02 145.03 141.53 143.37 151.47 158.4 135.76 167.22"/></g><g><path d="M26.4,52.84c-1.7-3.77,.22-6.82,3.9-8.48,3.66-1.65,7.43-.99,9.03,2.55,1.67,3.7-.53,6.45-3.65,7.86l-1.08,.49-3.84-8.51c-2.49,1.29-3.76,3.11-2.71,5.43,.93,2.06,2.37,2.06,3.19,1.94l.92,2.04c-2.33,.52-4.57-.67-5.76-3.32Zm9.04-.55c2.04-.98,3.26-2.52,2.29-4.67-.89-1.97-2.92-2.35-5.29-1.59l2.86,6.33,.14-.06Z"/><path d="M39.23,56.84l3.5,6.24-1.82,1.02-3.5-6.24,1.82-1.02Z"/><path d="M53.98,60.71l1.25,1.95-17.05,10.95-1.25-1.95,17.05-10.95Z"/><path d="M44.01,82.48c-2.49-3.31-1.28-6.7,1.95-9.13,3.2-2.41,7.03-2.59,9.37,.51,2.44,3.25,.9,6.41-1.83,8.46l-.94,.71-5.62-7.46c-2.15,1.81-2.99,3.86-1.45,5.89,1.36,1.81,2.76,1.49,3.54,1.2l1.35,1.79c-2.16,1.02-4.6,.34-6.35-1.98Zm8.69-2.52c1.78-1.4,2.63-3.17,1.21-5.06-1.3-1.73-3.37-1.65-5.51-.39l4.18,5.54,.12-.09Z"/><path d="M57.66,83.34c1.79-1.58,4.24-1.36,6.44,1.02,2.28,2.48,2.36,4.65-.3,7.11l-4.06,3.75c-.79,.73-.96,1.2-.3,1.95l-1.38,1.27-.19-.21c-1.47-1.59-1.39-2.64-.35-3.91l-.04-.04c-1.66,.55-3.44-.01-4.8-1.49-1.83-1.98-1.83-4.15-.06-5.79,1.1-1.01,2.44-1.38,3.89-.83,1.51,.53,3.13,1.91,5.26,4.07l.43-.4c1.8-1.66,1.87-2.98,.58-4.38-1.36-1.47-2.72-1.24-3.62-.51l-1.5-1.63Zm2.61,8.3l.23-.21c-2.08-2.07-3.39-3.14-4.45-3.35-.63-.12-1.21,.1-1.74,.58-1.02,.94-.96,2.11,.04,3.19,1.17,1.27,3.47,2.05,5.92-.22Z"/><path d="M70.47,91.34l1.61,1.48-1.72,1.88,.04,.03c1.41-.62,3.6-.5,5.06,.84l.17,.16-1.63,1.78-.32-.3c-1.78-1.63-3.9-1.69-5.67,.24l-4.99,5.44-1.71-1.57,9.17-9.99Z"/><path d="M81.25,107.19c.6-.77,1.26-1.63,1.27-2.43,.03-.79-.42-1.47-1.14-2.02-1.99-1.54-3.9-.97-5.25,.78l-4.98,6.43-1.83-1.42,8.3-10.72,1.73,1.34-1.4,1.81,.04,.03c1.36-.71,3.36-.72,5.06,.6,2.05,1.59,2.66,3.62,.69,6.16l-5.78,7.46-1.83-1.42,5.12-6.61Z"/><path d="M90.06,107.03l1.95,1.3-7.5,11.29-1.95-1.3,7.5-11.29Zm3.05-4.68l2.04,1.35-1.38,2.08-2.04-1.35,1.38-2.08Z"/><path d="M100.86,119.71c.48-.85,1.02-1.79,.91-2.59-.08-.79-.63-1.39-1.41-1.84-2.19-1.25-4-.41-5.09,1.51l-4.03,7.06-2.01-1.15,6.71-11.77,1.9,1.08-1.13,1.99,.04,.03c1.25-.89,3.22-1.18,5.1-.11,2.26,1.29,3.14,3.21,1.55,6l-4.68,8.2-2.01-1.15,4.14-7.26Z"/><path d="M102.48,131.6l2.03,.94c-.25,1.16,.23,2.2,2.24,3.13,2.34,1.08,3.9,.75,5.15-1.96l.84-1.82h-.02c-1.19,.91-3.12,1.3-4.97,.45-2.57-1.18-4.19-3.88-2.09-8.44,1.87-4.06,5.04-5.29,8.08-3.9,1.99,.92,2.67,2.56,2.66,3.94l.05,.02,.89-1.94,2.01,.92-5.53,12.01c-1.59,3.46-4.55,3.91-7.89,2.37-2.34-1.08-4.34-3.05-3.45-5.72Zm12.33-4.09c1.13-2.45,.53-4.77-1.6-5.75-2.22-1.02-4.12,.34-5.4,3.12-1.25,2.71-1.34,4.93,1.26,6.13,1.99,.92,4.21-.16,5.17-2.26l.57-1.24Z"/></g></svg>