<?xml version="1.0" encoding="UTF-8"?><svg id="a" xmlns="http://www.w3.org/2000/svg" viewBox="0 0 159 174"><defs><style>.b{fill:none;stroke:#000;stroke-miterlimit:10;stroke-width:3px;}</style></defs><g><path class="b" d="M150.35,9.3s.55,119.01-141.65,151.39"/><polygon points="15.47 146.37 17.98 148.02 9.81 160.36 22.71 167.6 21.24 170.22 5.53 161.39 15.47 146.37"/></g><g><path d="M32.82,123.21l2.14-.89,7.83,18.7-2.14,.89-7.83-18.7Z"/><path d="M39.51,121.54l2.22-1.02,1.04,2.27-2.22,1.02-1.04-2.27Zm2.38,5.05l2.13-.98,5.68,12.31-2.13,.98-5.68-12.31Z"/><path d="M46.57,124.5l2.09-1.1,6.66,6.35c.86,.8,1.59,1.58,1.59,1.58l.04-.02s-.23-1.04-.4-2.2l-1.4-9.12,1.96-1.03,2.15,14.19-2.16,1.14-10.52-9.78Z"/><path d="M71.04,126.7c-3.51,2.2-6.78,.7-8.93-2.72-2.13-3.4-1.98-7.23,1.31-9.29,3.44-2.16,6.46-.35,8.28,2.55l.63,1-7.91,4.96c1.62,2.29,3.59,3.3,5.75,1.95,1.92-1.2,1.72-2.63,1.5-3.43l1.9-1.19c.83,2.24-.05,4.61-2.51,6.16Zm-1.77-8.88c-1.25-1.89-2.94-2.89-4.94-1.64-1.83,1.15-1.93,3.21-.86,5.46l5.88-3.69-.08-.13Z"/><path d="M72.64,100.48l1.82-1.43,12.55,15.91-1.82,1.43-12.55-15.91Z"/><path d="M95.23,108.36c-3.06,2.79-6.55,1.9-9.27-1.09-2.7-2.97-3.23-6.76-.36-9.37,3-2.74,6.29-1.49,8.6,1.04l.8,.87-6.9,6.29c2,1.97,4.12,2.61,6,.9,1.67-1.52,1.23-2.89,.86-3.64l1.65-1.51c1.21,2.06,.77,4.55-1.38,6.51Zm-3.32-8.42c-1.56-1.64-3.41-2.33-5.15-.73-1.6,1.46-1.33,3.51,.12,5.52l5.13-4.68-.1-.11Z"/><path d="M94.82,94.7c-1.75-1.64-1.75-4.1,.42-6.51,2.25-2.51,4.41-2.79,7.1-.36l4.11,3.7c.8,.72,1.28,.84,1.97,.11l1.4,1.25-.19,.21c-1.44,1.61-2.5,1.63-3.86,.72l-.03,.04c.71,1.6,.31,3.43-1.03,4.92-1.81,2.01-3.96,2.21-5.76,.6-1.11-1-1.6-2.3-1.19-3.8,.39-1.55,1.61-3.29,3.56-5.62l-.44-.4c-1.82-1.63-3.14-1.58-4.42-.17-1.34,1.49-.98,2.82-.17,3.65l-1.48,1.65Zm8.02-3.38l-.23-.21c-1.87,2.27-2.81,3.67-2.92,4.75-.06,.64,.21,1.19,.75,1.67,1.03,.93,2.19,.76,3.17-.33,1.15-1.28,1.72-3.64-.77-5.88Z"/><path d="M101.59,81.19l1.31-1.75,2.04,1.53,.03-.04c-.76-1.34-.86-3.53,.33-5.12l.14-.18,1.93,1.45-.26,.35c-1.45,1.94-1.29,4.04,.81,5.62l5.91,4.42-1.39,1.85-10.85-8.12Z"/><path d="M116.23,68.77c-.83-.51-1.76-1.07-2.56-.99-.79,.06-1.41,.58-1.88,1.35-1.31,2.15-.53,3.98,1.36,5.14l6.94,4.23-1.21,1.98-11.57-7.06,1.14-1.87,1.95,1.19,.03-.04c-.85-1.27-1.09-3.25,.04-5.1,1.35-2.22,3.3-3.05,6.05-1.37l8.06,4.92-1.21,1.98-7.14-4.35Z"/><path d="M110.01,57.59l1.09-2.19,2.23,1.11-1.09,2.19-2.23-1.11Zm5.02,2.44l1.04-2.09,12.13,6.05-1.04,2.1-12.13-6.05Z"/><path d="M126.17,47.64c-.91-.36-1.91-.76-2.69-.55-.77,.19-1.29,.81-1.63,1.65-.93,2.34,.14,4.02,2.2,4.84l7.55,3.01-.86,2.15-12.59-5.02,.81-2.03,2.13,.85,.02-.05c-1.05-1.11-1.62-3.03-.82-5.03,.96-2.41,2.75-3.56,5.73-2.37l8.77,3.5-.86,2.15-7.77-3.09Z"/><path d="M137.76,44.12l.6-2.16c1.18,.06,2.14-.58,2.73-2.71,.69-2.48,.11-3.97-2.76-4.77l-1.93-.54v.02c1.1,1.03,1.79,2.87,1.24,4.83-.75,2.73-3.16,4.75-7.99,3.42-4.31-1.2-6.03-4.13-5.14-7.35,.58-2.11,2.1-3.05,3.46-3.26v-.05l-2.04-.57,.59-2.13,12.74,3.53c3.67,1.02,4.59,3.86,3.61,7.4-.69,2.48-2.31,4.78-5.09,4.33Zm-6.02-11.51c-2.6-.72-4.79,.25-5.42,2.5-.65,2.35,1,4.01,3.95,4.83,2.87,.8,5.08,.53,5.85-2.22,.58-2.11-.83-4.13-3.06-4.74l-1.31-.36Z"/></g></svg>