<svg id="Group_21_Copy_6" data-name="Group 21 Copy 6" xmlns="http://www.w3.org/2000/svg" viewBox="0 0 160 160">
    <defs>
        <clipPath id="clip-path">
            <rect id="Mask" width="160" height="160" fill="#ffb5b5"/>
        </clipPath>
    </defs>
    <g id="Rectangle">
        <rect id="Mask-2" data-name="Mask" width="160" height="160" fill="#ffb5b5"/>
        <g id="Rectangle-2" data-name="Rectangle" clip-path="url(#clip-path)">
            <g id="Group_22" data-name="Group 22" transform="translate(-14.152 37.599)">
                <g id="Triangle_Copy" data-name="Triangle Copy" transform="translate(141.581 0) rotate(90)" fill="#ff6770" stroke-miterlimit="10">
                    <path d="M 64.67280578613281 131.9324035644531 L 17.16612434387207 131.9324035644531 L 23.91311836242676 81.64943695068359 L 24.06515502929688 80.51645660400391 L 22.92201042175293 80.51645660400391 L 4.723518848419189 80.51645660400391 C 3.426009654998779 80.51645660400391 2.244009494781494 79.85758209228516 1.561645984649658 78.75398254394531 C 0.8793005347251892 77.65038299560547 0.818082332611084 76.29853057861328 1.397918701171875 75.13776397705078 L 37.40453720092773 3.056220054626465 C 38.04768371582031 1.768674612045288 39.29092025756836 1.000001907348633 40.73015594482422 1.000001907348633 C 42.16937255859375 1.000001907348633 43.4126091003418 1.768674612045288 44.05575561523438 3.056220054626465 L 80.06235504150391 75.13776397705078 C 80.64218902587891 76.29853057861328 80.58097076416016 77.65038299560547 79.89862823486328 78.75398254394531 C 79.21626281738281 79.85758209228516 78.03426361083984 80.51645660400391 76.73675537109375 80.51645660400391 L 58.91690063476563 80.51645660400391 L 57.77375411987305 80.51645660400391 L 57.9257926940918 81.64943695068359 L 64.67280578613281 131.9324035644531 Z" stroke="none"/>
                    <path d="M 40.73013687133789 2 C 39.67805099487305 2 38.76924514770508 2.561904907226563 38.29911422729492 3.503067016601563 L 2.292503356933594 75.58465576171875 C 1.862335205078125 76.44581604003906 1.90594482421875 77.40930938720703 2.412200927734375 78.22807312011719 C 2.918441772460938 79.04685974121094 3.760879516601563 79.51644134521484 4.723526000976563 79.51644134521484 L 22.92202758789063 79.51644134521484 L 25.20830917358398 79.51644134521484 L 24.90426635742188 81.78242492675781 L 18.30927658081055 130.9324035644531 L 63.5296516418457 130.9324035644531 L 56.93465805053711 81.78242492675781 L 56.630615234375 79.51644134521484 L 58.91689682006836 79.51644134521484 L 76.73674774169922 79.51644134521484 C 77.69937896728516 79.51644134521484 78.54183197021484 79.04685974121094 79.04807281494141 78.22808837890625 C 79.55431365966797 77.40930938720703 79.59793853759766 76.44581604003906 79.16777038574219 75.58464050292969 L 43.16115951538086 3.503067016601563 C 42.6910285949707 2.561904907226563 41.78222274780273 2 40.73013687133789 2 M 40.73013687133789 0 C 42.40576553344727 0 44.08139801025391 0.869781494140625 44.95035552978516 2.609329223632813 L 80.95696258544922 74.69090270996094 C 82.52372741699219 77.82742309570313 80.24283599853516 81.51644134521484 76.73674774169922 81.51644134521484 L 58.91689682006836 81.51644134521484 L 65.81594085693359 132.9324035644531 L 16.02298736572266 132.9324035644531 L 22.92202758789063 81.51644134521484 L 4.723526000976563 81.51644134521484 C 1.217437744140625 81.51644134521484 -1.063468933105469 77.82742309570313 0.5033111572265625 74.69090270996094 L 36.50991821289063 2.609329223632813 C 37.37887573242188 0.869781494140625 39.05450820922852 0 40.73013687133789 0 Z" stroke="none" fill="#001c54"/>
                </g>
                <g id="Triangle_Copy_2" data-name="Triangle Copy 2" transform="translate(80.98 29.46) rotate(90)" fill="#ff6579" stroke-miterlimit="10">
                    <path d="M 38.69500350952148 79.98011016845703 L 10.02676296234131 79.98011016845703 L 14.16452789306641 48.92259216308594 L 14.31535053253174 47.79052352905273 L 13.17328357696533 47.79052352905273 L 4.723472595214844 47.79052352905273 C 3.428128004074097 47.79052352905273 2.247150182723999 47.13333511352539 1.564372301101685 46.03253555297852 C 0.8815945982933044 44.93174743652344 0.817594587802887 43.58175659179688 1.393161296844482 42.42130279541016 L 20.91288375854492 3.065669298171997 C 21.55440521240234 1.772213697433472 22.79938316345215 1.00000262260437 24.24319458007813 1.00000262260437 C 25.6870059967041 1.00000262260437 26.93198394775391 1.772213697433472 27.57351684570313 3.065669298171997 L 47.09322738647461 42.42130279541016 C 47.66879272460938 43.58175659179688 47.60479354858398 44.93174743652344 46.92201614379883 46.03254699707031 C 46.23923873901367 47.13333511352539 45.05826187133789 47.79052352905273 43.76291656494141 47.79052352905273 L 35.54848480224609 47.79052352905273 L 34.40641784667969 47.79052352905273 L 34.5572395324707 48.92259216308594 L 38.69500350952148 79.98011016845703 Z" stroke="none"/>
                    <path d="M 24.24319458007813 1.999984741210938 C 23.18776321411133 1.999984741210938 22.27768707275391 2.564476013183594 21.8087329864502 3.509986877441406 L 2.289024353027344 42.86564636230469 C 1.862010955810547 43.72658538818359 1.907627105712891 44.68875503540039 2.414180755615234 45.50544738769531 C 2.920734405517578 46.32212448120117 3.762439727783203 46.79052352905273 4.723472595214844 46.79052352905273 L 13.17328643798828 46.79052352905273 L 15.4574089050293 46.79052352905273 L 15.15576553344727 49.05464553833008 L 11.16882705688477 78.98012542724609 L 37.55294799804688 78.98012542724609 L 33.56600952148438 49.05464553833008 L 33.26436614990234 46.79052352905273 L 35.54848480224609 46.79052352905273 L 43.76291656494141 46.79052352905273 C 44.72394943237305 46.79052352905273 45.56565475463867 46.32212448120117 46.07220840454102 45.50544738769531 C 46.57876205444336 44.68875503540039 46.6243782043457 43.72658538818359 46.19736480712891 42.86563110351563 L 26.67765617370605 3.509986877441406 C 26.20870208740234 2.564476013183594 25.29862594604492 1.999984741210938 24.24319458007813 1.999984741210938 M 24.24320030212402 -7.62939453125e-06 C 25.92291450500488 -7.62939453125e-06 27.60262489318848 0.8737716674804688 28.46937942504883 2.621322631835938 L 47.98908615112305 41.97697067260742 C 49.54436492919922 45.11269378662109 47.26314926147461 48.79052352905273 43.76291656494141 48.79052352905273 L 35.54848480224609 48.79052352905273 L 39.83707046508789 80.98012542724609 L 8.884700775146484 80.98012542724609 L 13.17328643798828 48.79052352905273 L 4.723472595214844 48.79052352905273 C 1.223239898681641 48.79052352905273 -1.057975769042969 45.11269378662109 0.4973030090332031 41.97697067260742 L 20.01700973510742 2.621322631835938 C 20.8837718963623 0.8737716674804688 22.56348609924316 -7.62939453125e-06 24.24320030212402 -7.62939453125e-06 Z" stroke="none" fill="#001c54"/>
                </g>
                <g id="Triangle_Copy_3" data-name="Triangle Copy 3" transform="translate(60.766 47.083) rotate(90)" fill="#fff" stroke-miterlimit="10">
                    <path d="M 9.281545639038086 20.18937301635742 L 3.491142272949219 20.18937301635742 L 4.459079265594482 12.92414283752441 L 4.609899520874023 11.79208278656006 L 3.467839479446411 11.79208278656006 L 1.180869460105896 11.79208278656006 C 1.114639401435852 11.79208278656006 1.063359498977661 11.76354312896729 1.028449416160583 11.70726299285889 C 0.9935394525527954 11.65099334716797 0.9907594323158264 11.59237289428711 1.02018940448761 11.53304290771484 L 6.19495964050293 1.099663138389587 C 6.207189559936523 1.075013160705566 6.244389533996582 1.000003099441528 6.355639457702637 1.000003099441528 C 6.466889381408691 1.000003099441528 6.504099369049072 1.075013160705566 6.516329288482666 1.099663138389587 L 11.69108963012695 11.53303337097168 C 11.72051906585693 11.59237289428711 11.71773910522461 11.65099334716797 11.68282985687256 11.70726299285889 C 11.64791965484619 11.76354312896729 11.59663963317871 11.79208278656006 11.53040981292725 11.79208278656006 L 9.304839134216309 11.79208278656006 L 8.162769317626953 11.79208278656006 L 8.313599586486816 12.92414283752441 L 9.281545639038086 20.18937301635742 Z" stroke="none"/>
                    <path d="M 6.355643272399902 3.026256561279297 L 2.503931999206543 10.79208278656006 L 3.467839241027832 10.79208278656006 L 5.751969337463379 10.79208278656006 L 5.450319290161133 13.05621337890625 L 4.633199691772461 19.18937301635742 L 8.139479637145996 19.18937301635742 L 7.322359561920166 13.05621337890625 L 7.02070951461792 10.79208278656006 L 9.304839134216309 10.79208278656006 L 10.20734405517578 10.79208278656006 L 6.355643272399902 3.026256561279297 M 6.355640888214111 -1.9073486328125e-06 C 6.775569438934326 -1.9073486328125e-06 7.195499420166016 0.2184429168701172 7.412189483642578 0.6553325653076172 L 12.58694934844971 11.08870315551758 C 12.97576904296875 11.87263298034668 12.40546989440918 12.79208278656006 11.53040981292725 12.79208278656006 L 9.304839134216309 12.79208278656006 L 10.42360973358154 21.18937301635742 L 2.349069595336914 21.18937301635742 L 3.467839241027832 12.79208278656006 L 1.180869102478027 12.79208278656006 C 0.3058090209960938 12.79208278656006 -0.2644901275634766 11.87263298034668 0.1243295669555664 11.08870315551758 L 5.299099445343018 0.6553325653076172 C 5.51578426361084 0.2184429168701172 5.935711860656738 -1.9073486328125e-06 6.355640888214111 -1.9073486328125e-06 Z" stroke="none" fill="#001c54"/>
                </g>
            </g>
        </g>
    </g>
</svg>