<svg id="Group_21_Copy_8" data-name="Group 21 Copy 8" xmlns="http://www.w3.org/2000/svg" viewBox="0 0 160 160">
    <defs>
        <clipPath id="clip-path">
            <rect id="Mask" width="160" height="160" fill="#ffefad"/>
        </clipPath>
    </defs>
    <g id="Shape">
        <rect id="Mask-2" data-name="Mask" width="160" height="160" fill="#ffefad"/>
        <g id="Shape-2" data-name="Shape" clip-path="url(#clip-path)">
            <g id="Group" transform="translate(53.858 24.373)">
                <g id="Shape-3" data-name="Shape" transform="translate(0 0)" fill="#ffd500" stroke-linejoin="round" stroke-miterlimit="10">
                    <path d="M 24.26215934753418 109.5368499755859 L 15.57613277435303 98.79428863525391 L 15.51639652252197 48.28178787231445 L 15.51565837860107 47.65205001831055 L 14.94741249084473 47.38063430786133 C 10.83987331390381 45.41860198974609 7.362642765045166 42.36273956298828 4.891658306121826 38.54337310791016 C 2.351273775100708 34.61675643920898 1.005566000938416 30.0593090057373 1.000012159347534 25.36372566223145 C 0.9961044788360596 22.06894111633301 1.636427521705627 18.87421798706055 2.903181314468384 15.86830997467041 C 4.126827716827393 12.9646635055542 5.880581378936768 10.35775566101074 8.115704536437988 8.11997127532959 C 10.34632015228271 5.886709690093994 12.94407367706299 4.133663654327393 15.83681201934814 2.909525156021118 C 18.83096694946289 1.642463564872742 22.01331901550293 1.000002026557922 25.29544258117676 1.000002026557922 L 25.32498168945313 1.000017523765564 C 28.6133975982666 1.003925204277039 31.80375099182129 1.6525559425354 34.80744171142578 2.927879095077515 C 37.70941162109375 4.160032749176025 40.31668853759766 5.922371387481689 42.55684280395508 8.165940284729004 C 44.79710388183594 10.40961742401123 46.55685806274414 13.02106380462646 47.7872428894043 15.9277400970459 C 49.06084442138672 18.93651008605957 49.70859527587891 22.13229370117188 49.71250534057617 25.42634010314941 C 49.71804428100586 30.1214485168457 48.38338088989258 34.67503356933594 45.85279846191406 38.59483337402344 C 43.39152145385742 42.40724945068359 39.92242813110352 45.45400238037109 35.82056427001953 47.40567779541016 L 35.06027221679688 47.76743316650391 L 35.28722763061523 48.57821655273438 L 41.67425155639648 71.39675903320313 L 30.2274112701416 71.56307983398438 L 29.24075126647949 71.57741546630859 L 29.24193572998047 72.56417083740234 L 29.2590274810791 86.73918914794922 L 29.26021194458008 87.71701812744141 L 30.23782730102539 87.73775482177734 L 37.87613677978516 87.8997802734375 L 24.26215934753418 109.5368499755859 Z" stroke="none"/>
                    <path d="M 25.29289436340332 2 C 22.14601516723633 2 19.09535598754883 2.615776062011719 16.22567367553711 3.830238342285156 C 13.45279693603516 5.003738403320313 10.96235656738281 6.684494018554688 8.823574066162109 8.825820922851563 C 6.679973602294922 10.97193908691406 4.998153686523438 13.47190093994141 3.824775695800781 16.25624084472656 C 2.610214233398438 19.13835906982422 1.99627685546875 22.20215606689453 2.000015258789063 25.36254119873047 C 2.005336761474609 29.8653564453125 3.295597076416016 34.23537445068359 5.731273651123047 38.00017547607422 C 8.101795196533203 41.66427612304688 11.43773651123047 44.59595489501953 15.37843704223633 46.47829437255859 C 16.07295608520508 46.81003570556641 16.51547622680664 47.51091766357422 16.51639556884766 48.28061676025391 L 16.57569885253906 98.44007110595703 L 24.16050338745117 107.820671081543 L 36.08915328979492 88.86211395263672 L 30.21661567687988 88.73755645751953 C 29.1297550201416 88.71449279785156 28.26035499572754 87.8275146484375 28.25903511047363 86.74041748046875 L 28.24193572998047 72.56537628173828 C 28.24061584472656 71.47119903564453 29.11881446838379 70.57905578613281 30.21287536621094 70.56317901611328 L 40.36121368408203 70.41572570800781 L 34.32423400878906 48.8477783203125 C 34.06193542480469 47.91067886352539 34.5121955871582 46.9207763671875 35.39091491699219 46.50267791748047 C 39.32501602172852 44.63082122802734 42.65215301513672 41.70877838134766 45.01265716552734 38.05243682861328 C 47.43843460083008 34.29499816894531 48.71781539916992 29.92935943603516 48.71249389648438 25.42752075195313 C 48.70875549316406 22.26771545410156 48.08761596679688 19.20267486572266 46.86635589599609 16.31753540039063 C 45.68627548217773 13.52971649169922 43.99825668334961 11.02483367919922 41.84919738769531 8.87249755859375 C 39.70033645629883 6.720359802246094 37.19965362548828 5.029998779296875 34.4166145324707 3.848335266113281 C 31.53683471679688 2.625617980957031 28.47757530212402 2.003753662109375 25.32189559936523 2.000015258789063 L 25.29303550720215 2 L 25.29289436340332 2 M 25.29541778564453 0 C 25.30481719970703 0 25.31675338745117 7.62939453125e-06 25.3261547088623 1.52587890625e-05 C 39.32989501953125 0.01663970947265625 50.69585418701172 11.39994049072266 50.71249389648438 25.42514038085938 C 50.72445678710938 35.54845428466797 44.80241394042969 44.23949432373047 36.25021362304688 48.30867767333984 L 42.98727416992188 72.37777709960938 L 30.24193572998047 72.56295776367188 L 30.25903511047363 86.73799896240234 L 39.66309356689453 86.93745422363281 L 24.36381530761719 111.253059387207 L 14.57653427124023 99.14851379394531 L 14.51639556884766 48.28297805786133 C 5.954673767089844 44.19333648681641 0.011993408203125 35.48819732666016 1.52587890625e-05 25.36489868164063 C -0.01659393310546875 11.34911346435547 11.30463790893555 -0.001373291015625 25.29541778564453 0 Z" stroke="none" fill="#001c54"/>
                </g>
                <g id="Path" transform="translate(31.057 18.084)" fill="#fff" stroke-miterlimit="10">
                    <path d="M 5.700264930725098 10.40049362182617 C 4.444775104522705 10.40049362182617 3.264434814453125 9.911574363708496 2.376674890518188 9.02381420135498 C 1.488914847373962 8.136063575744629 1.000004887580872 6.955723762512207 1.000004887580872 5.700233936309814 C 1.000004887580872 4.444754123687744 1.48890495300293 3.264413833618164 2.376664876937866 2.37666392326355 C 3.26441478729248 1.488903999328613 4.444745063781738 1.000003933906555 5.700224876403809 1.000003933906555 C 6.955724716186523 1.000003933906555 8.136064529418945 1.488913893699646 9.023824691772461 2.376683950424194 C 9.911584854125977 3.264443874359131 10.40049457550049 4.444774150848389 10.40049457550049 5.700253963470459 C 10.40049457550049 6.955743789672852 9.911584854125977 8.136083602905273 9.023824691772461 9.023834228515625 C 8.13608455657959 9.91158390045166 6.95575475692749 10.40049362182617 5.700264930725098 10.40049362182617 Z" stroke="none"/>
                    <path d="M 5.700224876403809 2.000003814697266 C 4.711854934692383 2.000003814697266 3.782644748687744 2.384894371032715 3.083765029907227 3.08376407623291 C 2.384884834289551 3.782643795013428 1.999995231628418 4.711863994598389 1.999995231628418 5.700233936309814 C 1.999995231628418 6.688613891601563 2.384895324707031 7.617823600769043 3.083774566650391 8.316714286804199 C 3.782664775848389 9.015594482421875 4.71188497543335 9.400493621826172 5.700264930725098 9.400493621826172 C 6.688634872436523 9.400493621826172 7.617844581604004 9.015604019165039 8.316715240478516 8.316734313964844 C 9.015594482421875 7.617854118347168 9.400494575500488 6.688633918762207 9.400494575500488 5.700253963470459 C 9.400494575500488 4.711884021759033 9.015604972839355 3.782673835754395 8.316715240478516 3.083793640136719 C 7.61783504486084 2.384903907775879 6.688604831695557 2.000003814697266 5.700224876403809 2.000003814697266 M 5.700227737426758 1.9073486328125e-06 C 7.159230709075928 1.9073486328125e-06 8.617753982543945 0.5563926696777344 9.730935096740723 1.669584274291992 C 11.95701503753662 3.895644187927246 11.95700454711914 7.504863739013672 9.730935096740723 9.73094367980957 C 8.618036270141602 10.84384346008301 7.158914089202881 11.40048980712891 5.700268268585205 11.40048980712891 C 4.24126672744751 11.40048980712891 2.782740592956543 10.84409999847412 1.669565200805664 9.730923652648926 C -0.5565252304077148 7.504843711853027 -0.5565147399902344 3.895624160766602 1.669554710388184 1.669553756713867 C 2.782454490661621 0.5566549301147461 4.241580486297607 1.9073486328125e-06 5.700227737426758 1.9073486328125e-06 Z" stroke="none" fill="#001c54"/>
                </g>
            </g>
        </g>
    </g>
</svg>