<svg id="Group_13" data-name="Group 13" xmlns="http://www.w3.org/2000/svg" width="46" height="46" viewBox="0 0 46 46">
  <rect id="Rectangle" width="46" height="46" rx="14" fill="#ffe8e8"/>
  <path id="Combined_Shape" data-name="Combined Shape" d="M0,8A8.01,8.01,0,0,1,8,0a.5.5,0,0,1,.5.5v7h7A.5.5,0,0,1,16,8,8,8,0,0,1,0,8ZM15.452,6H10.538A.538.538,0,0,1,10,5.461V.538a.538.538,0,0,1,.716-.508,8.66,8.66,0,0,1,5.207,5.153A.539.539,0,0,1,15.462,6h-.01Z" transform="translate(15 15)" fill="#ff6868"/>
</svg>
