<svg id="Group_15" data-name="Group 15" xmlns="http://www.w3.org/2000/svg" width="46" height="46" viewBox="0 0 46 46">
  <rect id="Rectangle_Copy_3" data-name="Rectangle Copy 3" width="46" height="46" rx="14" fill="#efecff"/>
  <path id="Path" d="M23.436,0a2.545,2.545,0,0,0-2.564,2.52,2.5,2.5,0,0,0,.852,1.874L19.336,7.326a2.591,2.591,0,0,0-3.607.19L11.113,5.351a2.48,2.48,0,0,0,.041-.447,2.564,2.564,0,0,0-5.128,0,2.472,2.472,0,0,0,.366,1.3L3.325,9.073a2.6,2.6,0,0,0-.761-.113,2.52,2.52,0,1,0,0,5.04,2.545,2.545,0,0,0,2.564-2.52,2.491,2.491,0,0,0-.772-1.8L7.2,7.018A2.589,2.589,0,0,0,10.655,6.4l4.511,2.116a2.471,2.471,0,0,0-.1.693,2.564,2.564,0,0,0,5.128,0,2.468,2.468,0,0,0-.17-.9l2.732-3.354a2.6,2.6,0,0,0,.68.091A2.545,2.545,0,0,0,26,2.52,2.545,2.545,0,0,0,23.436,0Z" transform="translate(11.001 15)" fill="#705bfe"/>
</svg>
