<svg xmlns="http://www.w3.org/2000/svg" width="53.396" height="40.692" viewBox="0 0 53.396 40.692">
  <g id="Group_11" data-name="Group 11" transform="translate(1.396 2)">
    <g id="Rectangle_Copy_23" data-name="Rectangle Copy 23" transform="translate(50 0)" fill="#705bfe" stroke-miterlimit="10">
      <path d="M -48.40103149414063 37.69240570068359 C -49.04277038574219 37.69240570068359 -49.65073013305664 37.37672805786133 -50.02732086181641 36.84797668457031 C -50.40591049194336 36.31638717651367 -50.50015258789063 35.65624618530273 -50.28586959838867 35.03681564331055 L -47.32353210449219 26.47359085083008 L -47.32353210449219 9.999996185302734 C -47.32353210449219 7.06179666519165 -46.1793327331543 4.299446582794189 -44.10171127319336 2.221826553344727 C -42.02408218383789 0.1441964954137802 -39.26174163818359 -1.000003457069397 -36.32353210449219 -1.000003457069397 L -10.00000095367432 -1.000003457069397 C -7.061790943145752 -1.000003457069397 -4.299451351165771 0.1441964954137802 -2.221821069717407 2.221826553344727 C -0.1442011147737503 4.299446582794189 0.9999988675117493 7.06179666519165 0.9999988675117493 9.999996185302734 L 0.9999988675117493 24.34615707397461 C 0.9999988675117493 27.28436660766602 -0.1442011147737503 30.04670715332031 -2.221821069717407 32.12433624267578 C -4.299451351165771 34.20195770263672 -7.061790943145752 35.34615707397461 -10.00000095367432 35.34615707397461 L -40.92763519287109 35.34615707397461 L -47.77249145507813 37.5910758972168 C -47.97748947143555 37.65831756591797 -48.18897247314453 37.69240570068359 -48.40103149414063 37.69240570068359 Z" stroke="none"/>
      <path d="M -36.32352447509766 -3.814697265625e-06 C -41.84637832641602 -3.814697265625e-06 -46.32353591918945 4.477149963378906 -46.32353591918945 9.999996185302734 L -46.32353591918945 26.64167404174805 L -49.34082412719727 35.36375045776367 C -49.57428359985352 36.03861618041992 -49.05348968505859 36.69241333007813 -48.40102767944336 36.69241333007813 C -48.29785919189453 36.69241333007813 -48.19142913818359 36.67607498168945 -48.08413314819336 36.64088439941406 L -41.08743286132813 34.34614944458008 L -10 34.34614944458008 C -4.477157592773438 34.34614944458008 0 29.8690071105957 0 24.34615135192871 L 0 9.999996185302734 C 0 4.477149963378906 -4.477157592773438 -3.814697265625e-06 -10 -3.814697265625e-06 L -36.32352447509766 -3.814697265625e-06 M -36.32352447509766 -2.000003814697266 L -10 -2.000003814697266 C -6.794689178466797 -2.000003814697266 -3.781223297119141 -0.7517814636230469 -1.514724731445313 1.514717102050781 C 0.7517776489257813 3.781219482421875 2 6.794683456420898 2 9.999996185302734 L 2 24.34615135192871 C 2 27.55147361755371 0.7517776489257813 30.56493949890137 -1.514724731445313 32.83143997192383 C -3.781223297119141 35.09793853759766 -6.794689178466797 36.34614944458008 -10 36.34614944458008 L -40.76783752441406 36.34614944458008 L -47.46085739135742 38.54128265380859 C -47.76665496826172 38.64157485961914 -48.08296966552734 38.69241714477539 -48.40103530883789 38.69241714477539 C -49.36555480957031 38.69241714477539 -50.27801132202148 38.21977233886719 -50.84185791015625 37.42808532714844 C -51.40213394165039 36.64139556884766 -51.54758071899414 35.62525177001953 -51.23091125488281 34.70988464355469 L -48.32353591918945 26.30550765991211 L -48.32353591918945 9.999996185302734 C -48.32353591918945 6.794683456420898 -47.07531356811523 3.781219482421875 -44.80881118774414 1.514717102050781 C -42.54231262207031 -0.7517814636230469 -39.52884674072266 -2.000003814697266 -36.32352447509766 -2.000003814697266 Z" stroke="none" fill="#001c54"/>
    </g>
    <path id="Path" d="M0,0,13.235,7.308,0,14.615Z" transform="translate(21.581 9.354)" fill="#fff"/>
  </g>
</svg>
