<svg id="Group_7" data-name="Group 7" xmlns="http://www.w3.org/2000/svg" width="46" height="46" viewBox="0 0 46 46">
  <rect id="Rectangle_Copy_25" data-name="Rectangle Copy 25" width="46" height="46" rx="14" fill="#eaf0fd"/>
  <path id="Shape" d="M11.536,7.932a.364.364,0,0,1-.134-.346l.4-2.459L10.1,3.386a.366.366,0,0,1-.085-.364.344.344,0,0,1,.273-.242l2.345-.359L13.7.2A.333.333,0,0,1,14.3.2l1.061,2.224,2.353.359a.345.345,0,0,1,.266.242.367.367,0,0,1-.085.361L16.2,5.124l.4,2.459a.365.365,0,0,1-.134.347.329.329,0,0,1-.356.029L14,6.8,11.893,7.961a.325.325,0,0,1-.155.04A.332.332,0,0,1,11.536,7.932ZM6.1,7.961,4,6.8l-2.1,1.16a.327.327,0,0,1-.356-.029A.366.366,0,0,1,1.4,7.584l.4-2.456L.1,3.388a.367.367,0,0,1-.085-.365A.344.344,0,0,1,.29,2.781l2.349-.359L3.7.2a.333.333,0,0,1,.608,0L5.369,2.422l2.346.359a.344.344,0,0,1,.265.242h.005a.368.368,0,0,1-.09.362l-1.7,1.741.4,2.459a.366.366,0,0,1-.134.347.332.332,0,0,1-.2.068A.325.325,0,0,1,6.1,7.961ZM26.257,8a.332.332,0,0,1-.157-.042L24,6.8,21.891,7.955a.326.326,0,0,1-.356-.028A.366.366,0,0,1,21.4,7.58l.4-2.458L20.1,3.381a.367.367,0,0,1-.085-.364.344.344,0,0,1,.273-.242l2.338-.353L23.689.2A.334.334,0,0,1,24.3.2l1.06,2.225,2.352.359a.346.346,0,0,1,.274.241.37.37,0,0,1-.085.365L26.2,5.127l.4,2.459a.371.371,0,0,1-.076.288A.336.336,0,0,1,26.266,8Z" transform="translate(9 18)" fill="#0d51d7"/>
</svg>
