<svg id="Layer_1" data-name="Layer 1" xmlns="http://www.w3.org/2000/svg" viewBox="0 0 64 64"><defs><style>.cls-1{fill:#1b6bf8;}.cls-2{fill:#fff;}</style></defs><circle class="cls-1" cx="32" cy="31.67" r="31"/><path d="M38.7,32.56h0A3.61,3.61,0,1,0,42.3,29,3.61,3.61,0,0,0,38.7,32.56Zm2.21,0h0a1.4,1.4,0,0,1,2.79,0,1.4,1.4,0,1,1-2.79,0Z"/><path d="M28.75,32.56h0A3.61,3.61,0,1,0,32.36,29,3.61,3.61,0,0,0,28.75,32.56Zm2.21,0h0a1.4,1.4,0,1,1,1.4,1.4A1.4,1.4,0,0,1,31,32.56Z"/><path d="M18.81,32.56h0a3.6,3.6,0,1,0,3.6-3.6A3.61,3.61,0,0,0,18.81,32.56Zm2.21,0h0A1.39,1.39,0,1,1,22.41,34,1.39,1.39,0,0,1,21,32.56Z"/><path class="cls-2" d="M25,45.09a.87.87,0,0,1,.77.09,16.12,16.12,0,1,0-5-5,.87.87,0,0,1,.09.77l-2,6.22Z"/><path class="cls-1" d="M35.64,40.4a6.71,6.71,0,0,0,7.14-.57c3.43-2.67,1.14,1.15-1.34,2.72-.86.54-3.76,1.19-5,0S34.24,39.45,35.64,40.4Z"/></svg>