<?xml version="1.0" encoding="UTF-8"?><svg id="a" xmlns="http://www.w3.org/2000/svg" viewBox="0 0 64 64"><defs><style>.b{fill:#fff;}.c{fill:#ff6868;}</style></defs><g><path d="M59.23,48.55c8.87-14.85,4.03-34.07-10.82-42.94C33.56-3.26,14.34,1.58,5.47,16.43-3.4,31.28,1.44,50.5,16.29,59.37c9.89,5.91,22.23,5.91,32.12,0l13.16,4.35c.84,.27,1.73-.19,2-1.02,.1-.32,.1-.66,0-.98l-4.35-13.16Zm-10.52,7.57c-.45-.15-.94-.09-1.35,.16-13.14,8.29-30.51,4.36-38.8-8.78C.27,34.36,4.2,16.99,17.34,8.7,30.48,.41,47.85,4.34,56.14,17.48c5.78,9.17,5.78,20.85,0,30.02-.26,.4-.32,.9-.16,1.35l3.59,10.86-10.86-3.59Z"/><path d="M18.05,27.33c-2.86,0-5.19,2.32-5.19,5.19s2.32,5.19,5.19,5.19,5.19-2.32,5.19-5.19h0c0-2.86-2.32-5.18-5.19-5.19Zm0,7.19c-1.11,0-2-.9-2-2,0-1.11,.9-2,2-2,1.11,0,2,.9,2,2h0c0,1.1-.9,2-2,2Z"/><path d="M32.37,27.33c-2.86,0-5.19,2.32-5.19,5.19s2.32,5.19,5.19,5.19,5.19-2.32,5.19-5.19h0c0-2.86-2.32-5.19-5.19-5.19Zm0,7.19c-1.11,0-2-.9-2-2,0-1.11,.9-2,2-2,1.11,0,2,.9,2,2h0c0,1.11-.9,2-2,2Z"/><path d="M46.69,27.33c-2.86,0-5.19,2.32-5.19,5.19s2.32,5.19,5.19,5.19,5.19-2.32,5.19-5.19h0c0-2.86-2.32-5.19-5.19-5.19Zm0,7.19c-1.11,0-2-.9-2-2s.9-2,2-2c1.11,0,2,.9,2,2h0c0,1.11-.9,2-2,2Z"/></g><path class="c" d="M48.71,56.13c-.45-.15-.94-.09-1.35,.16-13.14,8.29-30.51,4.36-38.8-8.78C.27,34.36,4.2,16.99,17.34,8.7,30.48,.41,47.85,4.34,56.14,17.48c5.78,9.17,5.78,20.85,0,30.02-.26,.4-.32,.9-.16,1.35l3.59,10.86-10.86-3.59Z"/><path d="M18.05,27.33c-2.86,0-5.19,2.32-5.19,5.19s2.32,5.19,5.19,5.19,5.19-2.32,5.19-5.19h0c0-2.86-2.32-5.18-5.19-5.19Zm0,7.19c-1.11,0-2-.9-2-2,0-1.11,.9-2,2-2,1.11,0,2,.9,2,2h0c0,1.1-.9,2-2,2Z"/><path d="M32.37,27.33c-2.86,0-5.19,2.32-5.19,5.19s2.32,5.19,5.19,5.19,5.19-2.32,5.19-5.19h0c0-2.86-2.32-5.19-5.19-5.19Zm0,7.19c-1.11,0-2-.9-2-2,0-1.11,.9-2,2-2,1.11,0,2,.9,2,2h0c0,1.11-.9,2-2,2Z"/><path d="M46.69,27.33c-2.86,0-5.19,2.32-5.19,5.19s2.32,5.19,5.19,5.19,5.19-2.32,5.19-5.19h0c0-2.86-2.32-5.19-5.19-5.19Zm0,7.19c-1.11,0-2-.9-2-2s.9-2,2-2c1.11,0,2,.9,2,2h0c0,1.11-.9,2-2,2Z"/><path class="b" d="M18.05,34.52c-1.11,0-2-.9-2-2,0-1.11,.9-2,2-2,1.11,0,2,.9,2,2h0c0,1.1-.9,2-2,2Z"/><path class="b" d="M32.37,34.52c-1.11,0-2-.9-2-2,0-1.11,.9-2,2-2,1.11,0,2,.9,2,2h0c0,1.1-.9,2-2,2Z"/><path class="b" d="M46.69,34.52c-1.11,0-2-.9-2-2,0-1.11,.9-2,2-2,1.11,0,2,.9,2,2h0c0,1.1-.9,2-2,2Z"/></svg>