<?xml version="1.0" encoding="UTF-8"?><svg id="a" xmlns="http://www.w3.org/2000/svg" viewBox="0 0 279 279"><defs><style>.b{fill:#ff3666;}.c{fill:#fff;stroke:#000;stroke-miterlimit:10;stroke-width:3px;}</style></defs><g><rect class="b" x="1.5" y="1.5" width="276" height="276" rx="28" ry="28"/><path d="M249.5,3c14.61,0,26.5,11.89,26.5,26.5V249.5c0,14.61-11.89,26.5-26.5,26.5H29.5c-14.61,0-26.5-11.89-26.5-26.5V29.5C3,14.89,14.89,3,29.5,3H249.5m0-3H29.5C13.21,0,0,13.21,0,29.5V249.5c0,16.29,13.21,29.5,29.5,29.5H249.5c16.29,0,29.5-13.21,29.5-29.5V29.5c0-16.29-13.21-29.5-29.5-29.5h0Z"/></g><path class="c" d="M221.48,92.9c-1.6-1.37-2.97,0-2.97-1.37s0-5.49-2.29-6.4c-2.12-.85-6.18,.46-7.32,4.57-1.14,4.12-1.6,7.32-1.6,7.32,0,0-.69-.69-1.37,1.37-.69,2.06-1.83,8.69-2.06,9.15-.23,.46-1.6-.23-2.06,.46-.46,.69-2.06,8.69-2.52,9.84-.46,1.14-7.55,22.87-9.61,25.85-2.03,2.94-4.8,8.46-9.15,10.98-4.35,2.52-13.27,5.95-17.61,6.4-3.44,.36-17.93,5.32-23.92,10.77-5.99-5.45-20.48-10.41-23.92-10.77-4.35-.46-13.27-3.89-17.61-6.4-4.35-2.52-7.11-8.04-9.15-10.98-2.06-2.97-9.15-24.7-9.61-25.85-.46-1.15-2.06-9.15-2.52-9.84-.46-.69-1.83,0-2.06-.46-.23-.46-1.37-7.09-2.06-9.15-.69-2.06-1.37-1.37-1.37-1.37,0,0-.46-3.2-1.6-7.32-1.14-4.12-5.2-5.42-7.32-4.57-2.29,.91-2.29,5.03-2.29,6.4s-1.37,0-2.97,1.37c-1.6,1.37,1.83,6.86,2.52,9.61,.68,2.75,.91,19.22,1.14,21.73,.23,2.51,.23,10.06,4.35,18.53,4.12,8.46,5.49,22.64,5.49,22.64,2.29,5.95,15.78,16.93,23.1,23.33,7.32,6.4,11.67,10.75,11.21,12.58-.46,1.83-1.37,4.12-3.89,12.81-1.66,7.74-12.35,27.47-16.46,34.87h38.77c4.12-9.15,15.37-34.19,16.11-36.24,.04-.12,.09-.3,.13-.54,.05,.24,.09,.43,.13,.54,.75,2.05,12,27.09,16.11,36.24h38.77c-4.11-7.4-14.81-27.14-16.46-34.87-2.52-8.69-3.43-10.98-3.89-12.81-.46-1.83,3.89-6.18,11.21-12.58s20.82-17.39,23.1-23.33c0,0,1.37-14.18,5.49-22.65,4.12-8.46,4.12-16.01,4.35-18.53,.23-2.52,.46-18.98,1.14-21.73,.69-2.75,4.12-8.24,2.52-9.61Z"/><circle class="c" cx="125" cy="133" r="24"/><circle class="c" cx="171" cy="101" r="24"/><circle class="c" cx="101" cy="82" r="24"/></svg>