<svg xmlns="http://www.w3.org/2000/svg" viewBox="0 0 195.068 178.005">
    <g id="Group_4" data-name="Group 4" transform="translate(0 0.005)">
        <g id="Rectangle_Copy_3" data-name="Rectangle Copy 3" transform="translate(0 22)" fill="#FFC703" stroke="#001c54" stroke-miterlimit="10" stroke-width="2">
            <rect width="156" height="156" rx="14" stroke="none"/>
            <rect x="1" y="1" width="154" height="154" rx="13" fill="none"/>
        </g>
        <g id="Group_11_Copy" data-name="Group 11 Copy" transform="translate(132 77)">
            <g id="Group_42" data-name="Group 42">
                <g id="Rectangle" transform="translate(3)" fill="white" stroke="#001c54" stroke-miterlimit="10" stroke-width="2">
                    <rect width="45" height="45" rx="10" stroke="none"/>
                    <rect x="-1" y="-1" width="47" height="47" rx="11" fill="none"/>
                </g>
                <text id="_copy" data-name="+ copy" transform="translate(6.5 21) rotate(45)" fill="#001c54" font-size="45" font-family="SegoeUI, Segoe UI"><tspan x="0" y="0">+</tspan></text>
            </g>
        </g>
        <g id="Group_83" data-name="Group 83" transform="translate(148)">
            <g id="Group_5_Copy_3" data-name="Group 5 Copy 3" transform="translate(21.581 113.627)">
                <g id="Path_Copy" data-name="Path Copy" transform="matrix(0.966, 0.259, -0.259, 0.966, 3.929, 0.753)" stroke-miterlimit="10">
                    <path d="M 5.499964714050293 12.4999942779541 C 5.103414535522461 12.4999942779541 4.754974842071533 12.2753849029541 4.590624809265137 11.91381454467773 L -0.4086353480815887 0.915424644947052 C -0.5500853657722473 0.6042446494102478 -0.5249253511428833 0.2482246458530426 -0.341315358877182 -0.03692535683512688 C -0.154605358839035 -0.3268853425979614 0.159584641456604 -0.4999953508377075 0.4991446435451508 -0.4999953508377075 C 0.642004668712616 -0.4999953508377075 0.7820646166801453 -0.4692553579807281 0.915424644947052 -0.4086353480815887 L 11.91381454467773 4.590624809265137 C 12.29076480865479 4.761964797973633 12.52030467987061 5.139854431152344 12.49859428405762 5.5533447265625 C 12.47689437866211 5.966824531555176 12.20905494689941 6.318604469299316 11.81624507904053 6.44953441619873 L 8.196269989013672 7.65619945526123 L 7.65619945526123 8.196269989013672 L 6.44953441619873 11.81624507904053 C 6.311084747314453 12.23160457611084 5.9383544921875 12.4999942779541 5.499964714050293 12.4999942779541 Z" stroke="none"/>
                    <path d="M 5.499967098236084 11.99999618530273 C 5.700189113616943 11.99999618530273 5.899951934814453 11.88386726379395 5.975194454193115 11.65813446044922 L 7.219184875488281 7.92618465423584 L 7.92618465423584 7.219184875488281 L 11.65813446044922 5.975194454193115 C 12.08918476104736 5.831514835357666 12.12055492401123 5.233824729919434 11.7069149017334 5.045804500579834 L 0.7085246443748474 0.0465446449816227 C 0.6380684375762939 0.01451908517628908 0.5672886967658997 4.760894626087975e-06 0.4991450309753418 4.760894626087975e-06 C 0.1605617851018906 4.760894626087975e-06 -0.1125798001885414 0.3584592044353485 0.0465446449816227 0.7085246443748474 L 5.045804500579834 11.7069149017334 C 5.135362148284912 11.90393924713135 5.317853450775146 11.99999618530273 5.499967098236084 11.99999618530273 M 5.499964714050293 12.9999942779541 C 4.904834747314453 12.9999942779541 4.381984710693359 12.66308498382568 4.135444641113281 12.12073421478271 L -0.8638253808021545 1.122324585914612 C -1.075935363769531 0.6556646227836609 -1.037765383720398 0.1211046427488327 -0.761695384979248 -0.3076253533363342 C -0.4825353622436523 -0.7411653399467468 -0.0111853564158082 -0.9999953508377075 0.4991446435451508 -0.9999953508377075 C 0.7138846516609192 -0.9999953508377075 0.9235646724700928 -0.9541753530502319 1.122354626655579 -0.86380535364151 L 12.12071418762207 4.135434627532959 C 12.68615436553955 4.392454624176025 13.03046417236328 4.959304809570313 12.99790477752686 5.579554557800293 C 12.96535491943359 6.199794769287109 12.56358432769775 6.727474689483643 11.97435474395752 6.923884868621826 L 8.46638011932373 8.093209266662598 L 8.093209266662598 8.46638011932373 L 6.923874855041504 11.97436428070068 C 6.719404697418213 12.58781433105469 6.147174835205078 12.9999942779541 5.499964714050293 12.9999942779541 Z" stroke="none" fill="#fff"/>
                </g>
            </g>
            <g id="Group_3_Copy_4" data-name="Group 3 Copy 4" transform="translate(34.5 0.5) rotate(90)">
                <path id="Line_7" data-name="Line 7" d="M13,0,0,1" transform="translate(0.569 32.079)" fill="none" stroke="#001c54" stroke-linecap="round" stroke-miterlimit="10" stroke-width="2"/>
                <path id="Line_7-2" data-name="Line 7" d="M-.385,10.607-10,0" transform="translate(18.382 6.551)" fill="none" stroke="#001c54" stroke-linecap="round" stroke-miterlimit="10" stroke-width="2"/>
                <path id="Line_7-3" data-name="Line 7" d="M0,13,2,0" transform="translate(30.923 0.146)" fill="none" stroke="#001c54" stroke-linecap="round" stroke-miterlimit="10" stroke-width="2"/>
            </g>
        </g>
        <text id="_3" data-name="3" transform="translate(49 34)" fill="#001c54" font-size="100" font-family="GT Flexa, sans-serif" font-weight="700"><tspan x="0" y="100">3</tspan></text>
    </g>
</svg>
