<?xml version="1.0" encoding="UTF-8"?><svg id="a" xmlns="http://www.w3.org/2000/svg" viewBox="0 0 586.5 101.51"><defs><style>.b{fill:#0d51ce;}.c{fill:#fff;}.d{fill:#001c54;}</style></defs><g><g><rect class="b" x="1.78" y="1.78" width="97.96" height="97.96" rx="11.69" ry="11.69"/><path class="d" d="M88.05,3.55c5.47,0,9.91,4.45,9.91,9.91V88.05c0,5.47-4.45,9.91-9.91,9.91H13.47c-5.47,0-9.91-4.45-9.91-9.91V13.47C3.55,8,8,3.55,13.47,3.55H88.05m0-3.55H13.47C6.03,0,0,6.03,0,13.47V88.05c0,7.44,6.03,13.47,13.47,13.47H88.05c7.44,0,13.47-6.03,13.47-13.47V13.47c0-7.44-6.03-13.47-13.47-13.47h0Z"/></g><g><path class="c" d="M82.04,64.91L62.91,31.47c-1.3-2.28-4.66-2.06-5.66,.37l-10.83,20.86-6.1-10.41c-.4-.71-1.03-1.28-1.8-1.51-1.41-.42-3.05,.17-3.76,1.66l-11.9,23.02c-1.7,4.85,1.6,6.16,4.77,6.16h50.51c3.45,0,5.61-3.72,3.89-6.72Z"/><path class="d" d="M78.14,73.11H27.63c-2.73,0-4.75-.82-5.85-2.38-1.04-1.47-1.15-3.4-.32-5.76l.08-.19,11.89-23c1-2.06,3.31-3.08,5.51-2.42,1.11,.33,2.05,1.11,2.66,2.19l4.74,8.08,9.56-18.43c.69-1.62,2.2-2.69,3.95-2.8,1.78-.12,3.44,.77,4.33,2.32l19.13,33.44c1.07,1.87,1.06,4.1-.02,5.96-1.08,1.86-3.01,2.97-5.16,2.97Zm-53.92-7.06c-.32,.95-.57,2.2-.03,2.97,.51,.72,1.76,1.13,3.44,1.13h50.51c1.08,0,2.06-.56,2.6-1.5,.54-.94,.55-2.06,0-3l-19.13-33.44c-.33-.57-.91-.88-1.56-.84-.65,.04-1.19,.43-1.44,1.04l-.06,.12-12.06,23.24-7.47-12.74c-.23-.41-.57-.71-.94-.82-.69-.21-1.59,.03-2,.88l-.02,.04-11.85,22.92Z"/></g></g><g><path class="d" d="M158.45,49h-9.81v11.24c0,2.51,.92,3.66,2.31,3.66,1.7,0,2.35-1.2,2.35-4.21v-3.51h5.14v3.61c0,5.82-2.79,9.28-7.5,9.28-5.01,0-7.45-2.96-7.45-8.78v-11.29h-4.18v-5.02h4.18v-4.26l5.14-2.76v7.02h9.81v5.02Z"/><path class="d" d="M166.52,68.36V33.25h5.14v10.74l-1.31,6.52h.74c1.26-4.77,3.66-7.22,7.15-7.22,5.01,0,7.67,3.41,7.67,9.93v15.15h-5.27v-14.2c0-3.61-1.35-5.47-4.05-5.47-3.01,0-4.93,2.66-4.93,6.97v12.69h-5.14Z"/><path class="d" d="M213.72,57.78h-15.21c.17,1.66,.52,3.01,1.18,4.06,.92,1.5,2.31,2.36,4.36,2.36,2.22,0,3.88-1.15,4.53-3.31h5.14c-.74,4.82-4.58,8.18-9.55,8.18-4.14,0-7.06-1.61-8.85-4.62-1.31-2.11-1.96-4.87-1.96-8.18s.87-6.22,2.14-8.33c1.83-3.06,4.79-4.67,8.24-4.67,6.36,0,9.98,4.62,9.98,12.49v2.01Zm-5.19-4.26c-.13-3.56-1.83-5.47-4.75-5.47-1.7,0-3.18,.85-4.14,2.41-.48,.85-.83,1.86-1,3.06h9.89Z"/><path class="d" d="M235.51,68.36v-24.38h5.14l-1.31,6.52h.74c1.09-4.67,3.14-7.22,6.54-7.22,3.05,0,5.58,2.46,5.58,7.22h.74c1.09-5.27,3.66-7.22,6.89-7.22,4.45,0,6.89,3.26,6.89,9.48v15.6h-5.27v-14.4c0-3.46-1.18-5.27-3.44-5.27-2.79,0-4.36,2.56-4.36,6.62v13.04h-5.14v-14.4c0-3.46-1.48-5.27-3.53-5.27-2.83,0-4.31,2.51-4.31,6.62v13.04h-5.14Z"/><path class="d" d="M293.17,52.51v15.85h-5.14l1.22-6.52h-.74c-1.09,4.92-3.4,7.22-7.28,7.22-1.96,0-3.62-.75-4.75-2.06-1.05-1.2-1.61-2.86-1.61-4.87,0-2.11,.52-3.76,1.57-4.97,1.31-1.5,3.27-2.36,5.88-2.56l5.71-.45v-1.66c0-2.66-1.39-4.26-4.23-4.26-4.1,0-4.14,3.66-4.14,4.11v.2h-5.23v-.2c0-.7,.04-9.08,9.5-9.08,6.1,0,9.24,3.31,9.24,9.23Zm-5.14,5.67l-4.49,.55c-1.26,.15-2.18,.55-2.75,1.2-.44,.5-.65,1.15-.65,1.91,0,.8,.22,1.35,.61,1.81,.48,.55,1.18,.8,2.05,.8,3.7,0,5.19-4.01,5.23-6.27Z"/><path class="d" d="M300.98,60.69v-.3h4.97v.3c0,2.51,1.26,3.76,3.75,3.76,1.26,0,2.18-.3,2.75-.95,.39-.45,.61-1.05,.61-1.76,0-1.51-.74-2.41-2.75-2.86l-3.14-.8c-3.92-.9-5.88-3.26-5.88-7.27,0-2.01,.57-3.66,1.66-4.92,1.48-1.71,3.84-2.61,6.89-2.61,5.36,0,8.54,3.21,8.54,8.43v.25h-4.97v-.25c0-2.51-1.31-3.81-3.79-3.81-1.26,0-2.18,.3-2.75,.95-.39,.45-.61,1.05-.61,1.76,0,1.45,.87,2.31,2.75,2.76l2.75,.7c4.36,1.05,6.32,3.31,6.32,7.42,0,2.06-.57,3.71-1.7,4.97-1.44,1.71-3.79,2.61-6.8,2.61-5.4,0-8.59-3.11-8.59-8.38Z"/><path class="d" d="M343.25,49h-9.81v11.24c0,2.51,.92,3.66,2.31,3.66,1.7,0,2.35-1.2,2.35-4.21v-3.51h5.14v3.61c0,5.82-2.79,9.28-7.5,9.28-5.01,0-7.45-2.96-7.45-8.78v-11.29h-4.18v-5.02h4.18v-4.26l5.14-2.76v7.02h9.81v5.02Z"/><path class="d" d="M369.97,57.78h-15.21c.17,1.66,.52,3.01,1.18,4.06,.92,1.5,2.31,2.36,4.36,2.36,2.22,0,3.88-1.15,4.53-3.31h5.14c-.74,4.82-4.58,8.18-9.55,8.18-4.14,0-7.06-1.61-8.85-4.62-1.31-2.11-1.96-4.87-1.96-8.18s.87-6.22,2.14-8.33c1.83-3.06,4.79-4.67,8.24-4.67,6.36,0,9.98,4.62,9.98,12.49v2.01Zm-5.19-4.26c-.13-3.56-1.83-5.47-4.75-5.47-1.7,0-3.18,.85-4.14,2.41-.48,.85-.83,1.86-1,3.06h9.89Z"/><path class="d" d="M377.9,68.36v-24.38h5.1l-1.48,7.02h.78c1.05-5.32,3.36-7.73,6.58-7.73,3.92,0,5.84,2.96,5.84,8.03v5.32h-5.27v-3.31c0-3.21-.96-4.51-2.88-4.51-2.31,0-3.53,2.26-3.53,6.52v13.04h-5.14Z"/><path class="d" d="M416.26,64.45c-1.31-2.11-1.96-4.87-1.96-8.18s.74-6.22,2.01-8.33c1.87-3.06,4.88-4.67,8.67-4.67,5.67,0,9.72,3.81,9.89,9.78h-5.1c-.39-2.91-2.09-4.57-4.75-4.57-1.87,0-3.31,.85-4.23,2.36-.83,1.35-1.26,3.11-1.26,5.42s.44,3.96,1.22,5.27c.87,1.51,2.27,2.31,4.05,2.31,2.57,0,4.18-1.61,4.53-4.57h5.1c-.13,6.02-4.1,9.78-9.76,9.78-3.7,0-6.63-1.61-8.41-4.62Z"/><path class="d" d="M442.67,68.36V33.25h5.14v10.74l-1.31,6.52h.74c1.26-4.77,3.66-7.22,7.15-7.22,5.01,0,7.67,3.41,7.67,9.93v15.15h-5.27v-14.2c0-3.61-1.35-5.47-4.05-5.47-3.01,0-4.93,2.66-4.93,6.97v12.69h-5.14Z"/><path class="d" d="M488.52,52.51v15.85h-5.14l1.22-6.52h-.74c-1.09,4.92-3.4,7.22-7.28,7.22-1.96,0-3.62-.75-4.75-2.06-1.05-1.2-1.61-2.86-1.61-4.87,0-2.11,.52-3.76,1.57-4.97,1.31-1.5,3.27-2.36,5.88-2.56l5.71-.45v-1.66c0-2.66-1.39-4.26-4.23-4.26-4.1,0-4.14,3.66-4.14,4.11v.2h-5.23v-.2c0-.7,.04-9.08,9.5-9.08,6.1,0,9.24,3.31,9.24,9.23Zm-5.14,5.67l-4.49,.55c-1.26,.15-2.18,.55-2.75,1.2-.44,.5-.65,1.15-.65,1.91,0,.8,.22,1.35,.61,1.81,.48,.55,1.18,.8,2.05,.8,3.7,0,5.19-4.01,5.23-6.27Z"/><path class="d" d="M497.67,68.36v-24.38h5.14l-1.31,6.52h.74c1.26-4.77,3.66-7.22,7.15-7.22,5.01,0,7.67,3.41,7.67,9.93v15.15h-5.27v-14.2c0-3.61-1.35-5.47-4.05-5.47-3.01,0-4.93,2.66-4.93,6.97v12.69h-5.14Z"/><path class="d" d="M526.22,68.36v-24.38h5.14l-1.31,6.52h.74c1.26-4.77,3.66-7.22,7.15-7.22,5.01,0,7.67,3.41,7.67,9.93v15.15h-5.27v-14.2c0-3.61-1.35-5.47-4.05-5.47-3.01,0-4.93,2.66-4.93,6.97v12.69h-5.14Z"/><path class="d" d="M573.43,57.78h-15.21c.17,1.66,.52,3.01,1.18,4.06,.92,1.5,2.31,2.36,4.36,2.36,2.22,0,3.88-1.15,4.53-3.31h5.14c-.74,4.82-4.58,8.18-9.55,8.18-4.14,0-7.06-1.61-8.85-4.62-1.31-2.11-1.96-4.87-1.96-8.18s.87-6.22,2.14-8.33c1.83-3.06,4.79-4.67,8.24-4.67,6.36,0,9.98,4.62,9.98,12.49v2.01Zm-5.19-4.26c-.13-3.56-1.83-5.47-4.75-5.47-1.7,0-3.18,.85-4.14,2.41-.48,.85-.83,1.86-1,3.06h9.89Z"/><path class="d" d="M581.36,68.36V33.25h5.14v35.12h-5.14Z"/></g></svg>