<svg id="Layer_1" data-name="Layer 1" xmlns="http://www.w3.org/2000/svg" viewBox="0 0 637 95"><defs><style>.cls-1{fill:#fff;}.cls-2{fill:#001c54;}.cls-3{fill:#1b6bf8;}</style></defs><rect class="cls-1" x="1.88" y="1.38" width="92.25" height="92.25" rx="10.83"/><path class="cls-2" d="M83.29,2.88a9.33,9.33,0,0,1,9.33,9.33V82.79a9.33,9.33,0,0,1-9.33,9.33H12.71a9.33,9.33,0,0,1-9.33-9.33V12.21a9.33,9.33,0,0,1,9.33-9.33H83.29m0-3H12.71A12.33,12.33,0,0,0,.38,12.21V82.79A12.33,12.33,0,0,0,12.71,95.12H83.29A12.33,12.33,0,0,0,95.62,82.79V12.21A12.33,12.33,0,0,0,83.29-.12Z"/><path class="cls-3" d="M75.42,59.7,57.65,28.64A2.92,2.92,0,0,0,52.4,29L42.34,48.36l-5.67-9.67A2.86,2.86,0,0,0,35,37.29a2.93,2.93,0,0,0-3.5,1.54l-11,21.38c-1.58,4.5,1.49,5.72,4.43,5.72H71.81A4.16,4.16,0,0,0,75.42,59.7Z"/><path class="cls-2" d="M71.81,67.43H24.88c-2.57,0-4.49-.78-5.53-2.26s-1.1-3.23-.31-5.46l.08-.19L30.17,38.14A4.38,4.38,0,0,1,38,38l4.28,7.3L51,28.35A4.43,4.43,0,0,1,59,27.89L76.73,59a5.67,5.67,0,0,1-4.92,8.48Zm-50-6.63a3.2,3.2,0,0,0,0,2.64c.45.63,1.58,1,3.09,1H71.81a2.67,2.67,0,0,0,2.31-4L56.35,29.38A1.38,1.38,0,0,0,55,28.66a1.4,1.4,0,0,0-1.23.89l-.06.12L42.42,51.46l-7-12a1.47,1.47,0,0,0-.82-.73,1.43,1.43,0,0,0-1.7.75Z"/><path class="cls-1" d="M64.42,40.46,57.65,28.64A2.92,2.92,0,0,0,52.4,29L48,37.46"/><path class="cls-2" d="M63.12,41.21,56.35,29.38A1.38,1.38,0,0,0,55,28.66a1.4,1.4,0,0,0-1.23.89l-.06.12-4.4,8.48-2.66-1.38L51,28.35A4.43,4.43,0,0,1,59,27.89l6.76,11.83Z"/><circle class="cls-3" cx="429.3" cy="51.78" r="5.08"/><path class="cls-2" d="M139.54,62.18a7.63,7.63,0,0,1-2.58-.46,5,5,0,0,1-2.16-1.5,5.47,5.47,0,0,1-1-1.89,9.36,9.36,0,0,1-.34-2.78V47.3h-4.33V43.72h4.33v-6h4.33v6h5.46V47.3h-5.46v8.28a6.44,6.44,0,0,0,.11,1.34,1.6,1.6,0,0,0,.42.77,2.21,2.21,0,0,0,1.77.68,4.05,4.05,0,0,0,1.18-.17,4.43,4.43,0,0,0,1-.47l1.51,3.17a7.83,7.83,0,0,1-2,1A8,8,0,0,1,139.54,62.18Z"/><path class="cls-2" d="M163.53,46.28a7.68,7.68,0,0,1,1.32,2.6,13.7,13.7,0,0,1,.45,3.84V61.8H161V52.35a7.51,7.51,0,0,0-.28-2.34,4,4,0,0,0-.77-1.36,3.55,3.55,0,0,0-1.36-1,4.38,4.38,0,0,0-1.77-.36A5.29,5.29,0,0,0,154,48a7,7,0,0,0-1.85,1.53V61.8h-4.33V35.06h4.33V45.15a9.16,9.16,0,0,1,2.22-1.28,7.52,7.52,0,0,1,2.87-.53,8.2,8.2,0,0,1,3.56.78A7.68,7.68,0,0,1,163.53,46.28Z"/><path class="cls-2" d="M187,52.68a5.62,5.62,0,0,1,0,.57c0,.2,0,.39-.05.56H173.78a4.7,4.7,0,0,0,.53,1.87,5,5,0,0,0,1.16,1.45,5.51,5.51,0,0,0,1.66.94,5.89,5.89,0,0,0,2,.34,6,6,0,0,0,2.9-.68,9.71,9.71,0,0,0,2-1.43l2.48,2.41a8.71,8.71,0,0,1-3.38,2.58,10.18,10.18,0,0,1-4.07.89,10.4,10.4,0,0,1-3.86-.7,8.56,8.56,0,0,1-4.94-4.92,10.16,10.16,0,0,1-.69-3.8,10.52,10.52,0,0,1,.62-3.67,9.22,9.22,0,0,1,1.75-3,8,8,0,0,1,2.77-2,8.84,8.84,0,0,1,3.67-.74,8.07,8.07,0,0,1,3.48.74,8.46,8.46,0,0,1,2.7,2,8.91,8.91,0,0,1,1.73,3A10.88,10.88,0,0,1,187,52.68Zm-4.37-2.07a4.27,4.27,0,0,0-1.41-2.6,4.12,4.12,0,0,0-2.81-1,4.19,4.19,0,0,0-2.88,1A4.38,4.38,0,0,0,174,50.61Z"/><path class="cls-2" d="M226.39,52a6.81,6.81,0,0,0-.3-2.26,3.42,3.42,0,0,0-.86-1.36,3.65,3.65,0,0,0-1.25-.81,4.09,4.09,0,0,0-1.54-.28,4.94,4.94,0,0,0-1.58.24,6.78,6.78,0,0,0-1.3.61,5.58,5.58,0,0,0-1,.79c-.3.29-.56.56-.79.81.05.37.1.77.14,1.18s0,.86,0,1.34V61.8h-4.33V52a6.81,6.81,0,0,0-.3-2.26,3.33,3.33,0,0,0-.87-1.36,3.6,3.6,0,0,0-1.24-.81,4.15,4.15,0,0,0-1.55-.28,5,5,0,0,0-2.69.73,7,7,0,0,0-1.82,1.53V61.8h-4.34V43.72h4.07v1.7a9.25,9.25,0,0,1,2.3-1.46,6.93,6.93,0,0,1,2.9-.62,7.81,7.81,0,0,1,6.06,2.9,11.4,11.4,0,0,1,2.75-2.05,8,8,0,0,1,3.77-.85,8.64,8.64,0,0,1,3.63.78,7.22,7.22,0,0,1,2.81,2.16,6.51,6.51,0,0,1,1.26,2.49,13.34,13.34,0,0,1,.4,3.58V61.8h-4.34Z"/><path class="cls-2" d="M249.45,61.8V60.1a8.88,8.88,0,0,1-2.34,1.45,7.71,7.71,0,0,1-3.2.63,8.35,8.35,0,0,1-2.9-.51,8.72,8.72,0,0,1-2.53-1.45,9.8,9.8,0,0,1,0-14.92A8.47,8.47,0,0,1,241,43.85a9,9,0,0,1,3.07-.51,7.36,7.36,0,0,1,3,.62,9.39,9.39,0,0,1,2.32,1.46v-1.7h4.06V61.8Zm-5-3.58A5.75,5.75,0,0,0,249.18,56v-6.4a6.83,6.83,0,0,0-2-1.64,5.28,5.28,0,0,0-2.49-.62,5.43,5.43,0,0,0-2.13.41,5,5,0,0,0-1.65,1.15,5.24,5.24,0,0,0-1.09,1.73,6.09,6.09,0,0,0,0,4.34,5.54,5.54,0,0,0,1.07,1.73,4.85,4.85,0,0,0,1.6,1.15A5,5,0,0,0,244.47,58.22Z"/><path class="cls-2" d="M265.08,62.18a11.91,11.91,0,0,1-3.88-.63,10.49,10.49,0,0,1-3.43-1.94l2.15-2.86A8.67,8.67,0,0,0,262.29,58a7.85,7.85,0,0,0,2.71.47,3.66,3.66,0,0,0,1.92-.5,1.56,1.56,0,0,0,.83-1.38,1.42,1.42,0,0,0-.77-1.28,10,10,0,0,0-1.94-.83c-.58-.2-1.17-.39-1.77-.56a11.94,11.94,0,0,1-1.77-.68,6.85,6.85,0,0,1-2.09-1.6,4,4,0,0,1-.89-2.73,4.76,4.76,0,0,1,.59-2.39,5.65,5.65,0,0,1,1.54-1.76,7,7,0,0,1,2.19-1.07,8.79,8.79,0,0,1,2.5-.36,9.65,9.65,0,0,1,3.41.59,9.23,9.23,0,0,1,2.58,1.41l-2,2.9a9.51,9.51,0,0,0-1.75-.87,5.88,5.88,0,0,0-2-.34,4.05,4.05,0,0,0-2,.46,1.43,1.43,0,0,0-.83,1.31.94.94,0,0,0,.36.76,3.79,3.79,0,0,0,.92.54,11,11,0,0,0,1.32.47l1.55.49c.6.21,1.21.44,1.82.72a6.57,6.57,0,0,1,1.64,1,4.83,4.83,0,0,1,1.62,3.77,4.65,4.65,0,0,1-.6,2.36,5.74,5.74,0,0,1-1.58,1.75,7.53,7.53,0,0,1-2.24,1.09A9.05,9.05,0,0,1,265.08,62.18Z"/><path class="cls-2" d="M284.51,62.18a7.63,7.63,0,0,1-2.58-.46,5,5,0,0,1-2.16-1.5,5.47,5.47,0,0,1-1-1.89,9.36,9.36,0,0,1-.34-2.78V47.3h-4.33V43.72h4.33v-6h4.33v6h5.46V47.3h-5.46v8.28a6.44,6.44,0,0,0,.11,1.34,1.6,1.6,0,0,0,.42.77,2.21,2.21,0,0,0,1.77.68,4.05,4.05,0,0,0,1.18-.17,4.43,4.43,0,0,0,1-.47l1.5,3.17a7.61,7.61,0,0,1-2,1A8,8,0,0,1,284.51,62.18Z"/><path class="cls-2" d="M308.46,52.68c0,.18,0,.37,0,.57s0,.39-.06.56H295.28a4.7,4.7,0,0,0,.53,1.87A4.86,4.86,0,0,0,297,57.13a5.58,5.58,0,0,0,1.65.94,5.9,5.9,0,0,0,2,.34,6,6,0,0,0,2.9-.68,9.37,9.37,0,0,0,2-1.43l2.49,2.41a8.75,8.75,0,0,1-3.39,2.58,10.14,10.14,0,0,1-4.07.89,10.44,10.44,0,0,1-3.86-.7,8.78,8.78,0,0,1-3-1.94,8.69,8.69,0,0,1-1.94-3,10,10,0,0,1-.7-3.8,10.75,10.75,0,0,1,.62-3.67,9.4,9.4,0,0,1,1.75-3,8.14,8.14,0,0,1,2.77-2,8.88,8.88,0,0,1,3.67-.74,8.14,8.14,0,0,1,3.49.74,8.31,8.31,0,0,1,2.69,2,8.91,8.91,0,0,1,1.73,3A10.88,10.88,0,0,1,308.46,52.68Zm-4.36-2.07a4.34,4.34,0,0,0-1.42-2.6,4.1,4.1,0,0,0-2.8-1,4.19,4.19,0,0,0-2.88,1,4.33,4.33,0,0,0-1.45,2.56Z"/><path class="cls-2" d="M313,43.72h4.18v2.07a6,6,0,0,1,2.17-1.6,7.5,7.5,0,0,1,3.22-.66,10.69,10.69,0,0,1,1.36.11v4a4.1,4.1,0,0,0-.68-.09c-.23,0-.5,0-.83,0a6.23,6.23,0,0,0-2.84.69,5.6,5.6,0,0,0-2.25,2.13V61.8H313Z"/><path class="cls-2" d="M336.19,35.06h4.33V61.8h-4.33Z"/><path class="cls-2" d="M359.58,61.8V60.1a8.88,8.88,0,0,1-2.34,1.45,7.71,7.71,0,0,1-3.2.63,8.35,8.35,0,0,1-2.9-.51,8.54,8.54,0,0,1-2.52-1.45A9.41,9.41,0,0,1,346.11,57a10,10,0,0,1,0-8.4,9.41,9.41,0,0,1,2.51-3.26,8.19,8.19,0,0,1,2.54-1.45,9,9,0,0,1,3.07-.51,7.36,7.36,0,0,1,3,.62,9.21,9.21,0,0,1,2.32,1.46v-1.7h4.06V61.8Zm-5-3.58A5.75,5.75,0,0,0,359.31,56v-6.4a6.83,6.83,0,0,0-2-1.64,5.28,5.28,0,0,0-2.49-.62,5.43,5.43,0,0,0-2.13.41A5,5,0,0,0,351,48.86a5.44,5.44,0,0,0-1.1,1.73,6.23,6.23,0,0,0,0,4.34A5.76,5.76,0,0,0,351,56.66a4.85,4.85,0,0,0,1.6,1.15A5,5,0,0,0,354.6,58.22Z"/><path class="cls-2" d="M369.59,35.06h4.34V45.19a7.45,7.45,0,0,1,2.48-1.41,8.3,8.3,0,0,1,2.6-.44,9,9,0,0,1,3.07.51,8.3,8.3,0,0,1,2.54,1.45,9.54,9.54,0,0,1,2.51,3.26,10,10,0,0,1,0,8.4,9.54,9.54,0,0,1-2.51,3.26,8.54,8.54,0,0,1-2.52,1.45,8.39,8.39,0,0,1-2.9.51,7.68,7.68,0,0,1-3.2-.63,8.88,8.88,0,0,1-2.34-1.45v1.7h-4.07Zm9,23.16a4.8,4.8,0,0,0,3.62-1.56,5.54,5.54,0,0,0,1.07-1.73,6.09,6.09,0,0,0,0-4.34,5.24,5.24,0,0,0-1.09-1.73,5,5,0,0,0-1.66-1.15,5.41,5.41,0,0,0-2.12-.41,5.28,5.28,0,0,0-2.49.62,6.7,6.7,0,0,0-2,1.64V56a5.75,5.75,0,0,0,4.7,2.26Z"/><path class="cls-2" d="M398.33,62.18a12,12,0,0,1-3.88-.63A10.45,10.45,0,0,1,391,59.61l2.14-2.86A9,9,0,0,0,395.54,58a7.9,7.9,0,0,0,2.72.47,3.71,3.71,0,0,0,1.92-.5A1.56,1.56,0,0,0,401,56.6a1.41,1.41,0,0,0-.78-1.28,9.72,9.72,0,0,0-1.94-.83c-.57-.2-1.16-.39-1.77-.56a11.94,11.94,0,0,1-1.77-.68,7,7,0,0,1-2.09-1.6,4,4,0,0,1-.88-2.73,4.75,4.75,0,0,1,.58-2.39,5.68,5.68,0,0,1,1.55-1.76,7,7,0,0,1,2.18-1.07,8.86,8.86,0,0,1,2.51-.36,9.6,9.6,0,0,1,3.4.59,9,9,0,0,1,2.58,1.41l-2,2.9a9.43,9.43,0,0,0-1.74-.87,5.88,5.88,0,0,0-2-.34,4,4,0,0,0-2,.46,1.43,1.43,0,0,0-.83,1.31.94.94,0,0,0,.36.76,3.6,3.6,0,0,0,.92.54,11,11,0,0,0,1.32.47l1.54.49c.61.21,1.21.44,1.83.72a6.57,6.57,0,0,1,1.64,1,5,5,0,0,1,1.16,1.57,4.83,4.83,0,0,1,.46,2.2,4.56,4.56,0,0,1-.61,2.36,5.62,5.62,0,0,1-1.58,1.75,7.41,7.41,0,0,1-2.24,1.09A9,9,0,0,1,398.33,62.18Z"/><path class="cls-2" d="M463,47.67a5.1,5.1,0,0,0-2.13.44,4.89,4.89,0,0,0-1.64,1.18,5.63,5.63,0,0,0-1.43,3.85,5.94,5.94,0,0,0,.37,2.09A5.41,5.41,0,0,0,459.23,57a4.86,4.86,0,0,0,1.69,1.18,5.6,5.6,0,0,0,2.24.44,5.48,5.48,0,0,0,3.07-.78,8.57,8.57,0,0,0,2-1.71l2.94,2.34a9.34,9.34,0,0,1-3.41,3,9.7,9.7,0,0,1-4.58,1.09,10.09,10.09,0,0,1-3.91-.73,9.65,9.65,0,0,1-3.07-2,8.85,8.85,0,0,1-2-3,10,10,0,0,1,0-7.41,9.07,9.07,0,0,1,5-5,9.79,9.79,0,0,1,3.83-.73,9.38,9.38,0,0,1,4.23,1,9.92,9.92,0,0,1,3.37,2.73l-2.82,2.49a9.21,9.21,0,0,0-2-1.59A5.47,5.47,0,0,0,463,47.67Z"/><path class="cls-2" d="M483.05,43.72a9.4,9.4,0,0,1,3.75.73,9.58,9.58,0,0,1,3,2,9,9,0,0,1,2,3,9.89,9.89,0,0,1,0,7.41,9,9,0,0,1-2,3,9.58,9.58,0,0,1-3,2,9.54,9.54,0,0,1-10.47-2,9.2,9.2,0,0,1-2-3,9.89,9.89,0,0,1,0-7.41,9.18,9.18,0,0,1,2-3,9.3,9.3,0,0,1,6.72-2.73Zm0,14.88a4.89,4.89,0,0,0,2.07-.44,4.6,4.6,0,0,0,1.6-1.18,5.68,5.68,0,0,0,1-1.75,6,6,0,0,0,0-4.19,5.8,5.8,0,0,0-1-1.75,4.73,4.73,0,0,0-1.6-1.18,5.09,5.09,0,0,0-4.14,0,4.73,4.73,0,0,0-1.6,1.18,5.75,5.75,0,0,0-1,1.74,5.81,5.81,0,0,0-.37,2.11,5.94,5.94,0,0,0,.37,2.09,5.68,5.68,0,0,0,1,1.75,4.6,4.6,0,0,0,1.6,1.18A4.89,4.89,0,0,0,483.05,58.6Z"/><path class="cls-2" d="M512.84,46.69a7.68,7.68,0,0,1,1.32,2.58,13.57,13.57,0,0,1,.45,3.83v9.07h-4.33V52.72a7.48,7.48,0,0,0-.28-2.33,3.79,3.79,0,0,0-.77-1.36,3.55,3.55,0,0,0-1.36-1,4.38,4.38,0,0,0-1.77-.36,5.29,5.29,0,0,0-2.82.74,7.22,7.22,0,0,0-1.85,1.52V62.17H497.1V44.1h4.07v1.69a9.12,9.12,0,0,1,2.31-1.45,7.38,7.38,0,0,1,3-.62,8,8,0,0,1,6.32,3Z"/><path class="cls-2" d="M525.84,62.55a12.18,12.18,0,0,1-3.88-.62A10.59,10.59,0,0,1,518.53,60l2.15-2.86a8.67,8.67,0,0,0,2.37,1.26,8.09,8.09,0,0,0,2.71.47,3.58,3.58,0,0,0,1.92-.51,1.53,1.53,0,0,0,.83-1.37,1.42,1.42,0,0,0-.77-1.28,10,10,0,0,0-1.94-.83q-.87-.3-1.77-.57a10.93,10.93,0,0,1-1.77-.68,6.82,6.82,0,0,1-2.09-1.6,4,4,0,0,1-.88-2.73,4.78,4.78,0,0,1,.58-2.39,5.61,5.61,0,0,1,1.54-1.75,6.77,6.77,0,0,1,2.19-1.07,8.79,8.79,0,0,1,2.5-.36,9.65,9.65,0,0,1,3.41.58,9,9,0,0,1,2.58,1.42l-2,2.9a8.65,8.65,0,0,0-1.75-.87,5.57,5.57,0,0,0-2-.34,4,4,0,0,0-1.95.45,1.42,1.42,0,0,0-.83,1.32.93.93,0,0,0,.35.75,3.41,3.41,0,0,0,.93.55,12.07,12.07,0,0,0,1.31.47c.51.15,1,.32,1.55.49a19.21,19.21,0,0,1,1.83.72,6,6,0,0,1,1.63,1.05,5.08,5.08,0,0,1,1.17,1.56,5,5,0,0,1,.45,2.21,4.59,4.59,0,0,1-.6,2.35,5.63,5.63,0,0,1-1.58,1.75,7.19,7.19,0,0,1-2.24,1.09A8.67,8.67,0,0,1,525.84,62.55Z"/><path class="cls-2" d="M541.32,53.89a6.85,6.85,0,0,0,.3,2.26,3.63,3.63,0,0,0,2.11,2.16,4.14,4.14,0,0,0,1.54.29,5,5,0,0,0,2.69-.74,7.09,7.09,0,0,0,1.83-1.52V44.1h4.33V62.17h-4.06V60.48a9.42,9.42,0,0,1-2.3,1.45,6.88,6.88,0,0,1-2.86.62,7.88,7.88,0,0,1-3.34-.71A8.12,8.12,0,0,1,539,59.92a7.54,7.54,0,0,1-1.46-2.49,10.89,10.89,0,0,1-.5-3.54V44.1h4.33Z"/><path class="cls-2" d="M560.07,35.43h4.34V62.17h-4.34Z"/><path class="cls-2" d="M578.57,62.55A7.62,7.62,0,0,1,576,62.1a5,5,0,0,1-2.17-1.51,5.51,5.51,0,0,1-1-1.88,9.83,9.83,0,0,1-.34-2.79V47.67h-4.33V44.1h4.33v-6h4.34v6h5.46v3.57h-5.46V56A5.87,5.87,0,0,0,577,57.3a1.55,1.55,0,0,0,.41.77,2.25,2.25,0,0,0,1.77.68,4.07,4.07,0,0,0,1.19-.17,5.11,5.11,0,0,0,1-.47l1.5,3.16a7.16,7.16,0,0,1-2,1A8,8,0,0,1,578.57,62.55Z"/><path class="cls-2" d="M586.25,37.69a2.67,2.67,0,0,1,.79-1.94,2.59,2.59,0,0,1,1.92-.81,2.77,2.77,0,0,1,2.75,2.75,2.56,2.56,0,0,1-.81,1.92,2.66,2.66,0,0,1-1.94.79,2.61,2.61,0,0,1-1.92-.79A2.58,2.58,0,0,1,586.25,37.69Zm.57,24.48V44.1h4.33V62.17Z"/><path class="cls-2" d="M612.84,46.69a7.68,7.68,0,0,1,1.32,2.58,13.57,13.57,0,0,1,.45,3.83v9.07h-4.33V52.72a7.48,7.48,0,0,0-.28-2.33,3.79,3.79,0,0,0-.77-1.36,3.55,3.55,0,0,0-1.36-1,4.38,4.38,0,0,0-1.77-.36,5.29,5.29,0,0,0-2.82.74,7.22,7.22,0,0,0-1.85,1.52V62.17H597.1V44.1h4.07v1.69a9,9,0,0,1,2.31-1.45,7.36,7.36,0,0,1,3-.62,8.06,8.06,0,0,1,6.33,3Z"/><path class="cls-2" d="M633.07,60.71a7.58,7.58,0,0,1-2.51,1.41,8.87,8.87,0,0,1-2.77.43,8.45,8.45,0,0,1-5.42-2,9.42,9.42,0,0,1-2.5-3.26,9.93,9.93,0,0,1,0-8.39,9.42,9.42,0,0,1,2.5-3.26,8.3,8.3,0,0,1,2.54-1.45,9,9,0,0,1,3.07-.51,7.38,7.38,0,0,1,3,.62,9.3,9.3,0,0,1,2.31,1.45V44.1h4.07V60.89a17.27,17.27,0,0,1-.34,3.77,8.14,8.14,0,0,1-1,2.6,8,8,0,0,1-3.28,2.94,10.43,10.43,0,0,1-4.67,1,12,12,0,0,1-5.22-1.16,10.34,10.34,0,0,1-1.92-1.23,8.33,8.33,0,0,1-1.41-1.45l2.78-2.63c.28.27.6.57,1,.88a6.76,6.76,0,0,0,1.24.85,7.36,7.36,0,0,0,1.56.62,7.51,7.51,0,0,0,2,.24,6,6,0,0,0,2.32-.41A3.8,3.8,0,0,0,632,65.64a4.39,4.39,0,0,0,.79-1.7,10.88,10.88,0,0,0,.27-2.71Zm-4.71-2.11a5.82,5.82,0,0,0,4.71-2.26V49.93a7,7,0,0,0-2-1.63,5.11,5.11,0,0,0-2.48-.63,5.26,5.26,0,0,0-2.13.42,5,5,0,0,0-1.66,1.15A5.3,5.3,0,0,0,623.67,51a6.2,6.2,0,0,0,0,4.33A5.43,5.43,0,0,0,624.74,57a4.91,4.91,0,0,0,1.6,1.15A4.84,4.84,0,0,0,628.36,58.6Z"/></svg>