<svg id="Layer_1" data-name="Layer 1" xmlns="http://www.w3.org/2000/svg" viewBox="0 0 480 96"><defs><style>.cls-1{fill:#fff;}.cls-2{fill:#001c54;}.cls-3{fill:#1b6bf8;}</style></defs><rect class="cls-1" x="2.23" y="1.78" width="92.25" height="92.25" rx="10.83"/><path class="cls-2" d="M83.65,3.28A9.34,9.34,0,0,1,93,12.61V83.2a9.34,9.34,0,0,1-9.33,9.33H13.07A9.35,9.35,0,0,1,3.73,83.2V12.61a9.35,9.35,0,0,1,9.34-9.33H83.65m0-3H13.07A12.34,12.34,0,0,0,.73,12.61V83.2A12.34,12.34,0,0,0,13.07,95.53H83.65A12.33,12.33,0,0,0,96,83.2V12.61A12.33,12.33,0,0,0,83.65.28Z"/><path class="cls-3" d="M75.78,60.1,58,29a2.93,2.93,0,0,0-5.25.35L42.7,48.76,37,39.1a2.88,2.88,0,0,0-5.17.13l-11,21.38c-1.58,4.51,1.49,5.73,4.43,5.73H72.16A4.17,4.17,0,0,0,75.78,60.1Z"/><path class="cls-2" d="M72.17,67.84H25.24c-2.57,0-4.49-.78-5.53-2.26s-1.1-3.24-.31-5.46l.08-.2L30.53,38.54a4.38,4.38,0,0,1,7.81-.18l4.28,7.3L51.4,28.75a4.43,4.43,0,0,1,7.91-.45L77.08,59.36a5.66,5.66,0,0,1-4.91,8.48Zm-50-6.63a3.18,3.18,0,0,0,0,2.63c.45.64,1.58,1,3.09,1H72.17a2.67,2.67,0,0,0,2.31-4L56.71,29.79a1.38,1.38,0,0,0-1.33-.72,1.41,1.41,0,0,0-1.23.88l-.06.13L42.78,51.86l-7-12a1.45,1.45,0,0,0-.82-.72,1.41,1.41,0,0,0-1.7.75Z"/><path class="cls-1" d="M64.78,40.87,58,29a2.93,2.93,0,0,0-5.25.35l-4.4,8.47"/><path class="cls-2" d="M63.48,41.61,56.71,29.79a1.38,1.38,0,0,0-1.33-.72,1.41,1.41,0,0,0-1.23.88l-.06.13-4.4,8.47L47,37.17l4.37-8.42a4.43,4.43,0,0,1,7.91-.45l6.77,11.82Z"/><path class="cls-2" d="M141.62,66.89a9.79,9.79,0,0,1-3.29-.58,6.38,6.38,0,0,1-2.76-1.92,7,7,0,0,1-1.25-2.4,12.15,12.15,0,0,1-.43-3.55V47.92h-5.52V43.36h5.52V35.68h5.52v7.68h7v4.56h-7V58.48a8.2,8.2,0,0,0,.14,1.71,2,2,0,0,0,.53,1,2.84,2.84,0,0,0,2.25.87,5.27,5.27,0,0,0,1.52-.22,5.59,5.59,0,0,0,1.32-.6l1.92,4a9.09,9.09,0,0,1-2.55,1.23A10.05,10.05,0,0,1,141.62,66.89Z"/><path class="cls-2" d="M172.19,46.63a9.66,9.66,0,0,1,1.68,3.31,17.52,17.52,0,0,1,.58,4.9V66.4h-5.52v-12a9.63,9.63,0,0,0-.36-3,4.76,4.76,0,0,0-1-1.73,4.59,4.59,0,0,0-1.73-1.27,5.66,5.66,0,0,0-2.25-.46,6.8,6.8,0,0,0-3.6.94,8.83,8.83,0,0,0-2.35,1.94V66.4h-5.52V32.32h5.52V45.19a11.53,11.53,0,0,1,2.83-1.63,9.46,9.46,0,0,1,3.65-.68,10.43,10.43,0,0,1,4.53,1A9.94,9.94,0,0,1,172.19,46.63Z"/><path class="cls-2" d="M202.05,54.79q0,.33,0,.72c0,.26,0,.5-.07.72h-16.7a5.75,5.75,0,0,0,.67,2.37,6.11,6.11,0,0,0,1.49,1.85,6.82,6.82,0,0,0,2.11,1.2,8.23,8.23,0,0,0,6.29-.43,12.12,12.12,0,0,0,2.59-1.82l3.17,3.07a11.16,11.16,0,0,1-4.32,3.29,13,13,0,0,1-5.19,1.13,13.25,13.25,0,0,1-4.92-.89,11,11,0,0,1-3.81-2.48,11.14,11.14,0,0,1-2.48-3.79,12.88,12.88,0,0,1-.88-4.85,13.61,13.61,0,0,1,.79-4.68A11.85,11.85,0,0,1,183,46.39a10.16,10.16,0,0,1,3.53-2.57,11.37,11.37,0,0,1,4.68-.94,10.39,10.39,0,0,1,4.44.94,10.55,10.55,0,0,1,3.43,2.54,11.21,11.21,0,0,1,2.21,3.8A13.88,13.88,0,0,1,202.05,54.79Zm-5.57-2.64a5.52,5.52,0,0,0-1.8-3.31,5.19,5.19,0,0,0-3.58-1.3,5.36,5.36,0,0,0-3.67,1.34,5.59,5.59,0,0,0-1.85,3.27Z"/><path class="cls-2" d="M252.3,53.92a8.91,8.91,0,0,0-.38-2.88,4.41,4.41,0,0,0-1.11-1.72,4.49,4.49,0,0,0-1.58-1,5.31,5.31,0,0,0-2-.36,6.1,6.1,0,0,0-2,.32,8.72,8.72,0,0,0-1.66.76,8.19,8.19,0,0,0-1.32,1c-.38.37-.72.72-1,1,.07.48.12,1,.17,1.52s.07,1.09.07,1.7V66.4H236V53.92A8.91,8.91,0,0,0,235.6,51a4.41,4.41,0,0,0-1.11-1.72,4.49,4.49,0,0,0-1.58-1,5.31,5.31,0,0,0-2-.36,6.42,6.42,0,0,0-3.43.94,9.21,9.21,0,0,0-2.33,1.94V66.4h-5.52v-23h5.19v2.16a11.76,11.76,0,0,1,2.92-1.84,8.79,8.79,0,0,1,3.7-.8,9.68,9.68,0,0,1,4.34,1,9.9,9.9,0,0,1,3.39,2.69A14.24,14.24,0,0,1,242.7,44a10.06,10.06,0,0,1,4.8-1.08,11.07,11.07,0,0,1,4.63,1,9.3,9.3,0,0,1,3.58,2.76,8.42,8.42,0,0,1,1.61,3.17,17.65,17.65,0,0,1,.5,4.56v12H252.3Z"/><path class="cls-2" d="M281.68,66.4V64.24a11.64,11.64,0,0,1-3,1.85,9.87,9.87,0,0,1-4.08.8,10.7,10.7,0,0,1-3.69-.65,10.85,10.85,0,0,1-3.22-1.85,12,12,0,0,1-3.19-4.15,12.47,12.47,0,0,1,3.19-14.86A10.62,10.62,0,0,1,271,43.53a11.5,11.5,0,0,1,3.91-.65,9.27,9.27,0,0,1,3.87.8,11.78,11.78,0,0,1,2.95,1.84V43.36h5.18v23Zm-6.34-4.56a7.53,7.53,0,0,0,3.39-.74A7.63,7.63,0,0,0,281.34,59V50.8a8.68,8.68,0,0,0-2.59-2.08,6.63,6.63,0,0,0-3.17-.8,6.82,6.82,0,0,0-2.71.53,6.31,6.31,0,0,0-2.11,1.47,6.75,6.75,0,0,0-1.39,2.2,7.75,7.75,0,0,0,0,5.53,7,7,0,0,0,1.36,2.2,6.34,6.34,0,0,0,2,1.47A6.25,6.25,0,0,0,275.34,61.84Z"/><path class="cls-2" d="M301.6,66.89a15.37,15.37,0,0,1-5-.8,13.47,13.47,0,0,1-4.36-2.47L295,60a11.2,11.2,0,0,0,3,1.61,10.28,10.28,0,0,0,3.46.6,4.6,4.6,0,0,0,2.45-.65A2,2,0,0,0,305,59.78a1.79,1.79,0,0,0-1-1.63,12.1,12.1,0,0,0-2.47-1.06c-.74-.25-1.49-.49-2.26-.72a14.66,14.66,0,0,1-2.25-.86,8.63,8.63,0,0,1-2.67-2A5.07,5.07,0,0,1,293.25,50a6.07,6.07,0,0,1,.74-3.05,7.13,7.13,0,0,1,2-2.23,8.7,8.7,0,0,1,2.78-1.37,11.44,11.44,0,0,1,3.19-.46,12.27,12.27,0,0,1,4.35.75,12,12,0,0,1,3.29,1.8l-2.5,3.69a12.16,12.16,0,0,0-2.23-1.1,7.25,7.25,0,0,0-2.52-.43,5.19,5.19,0,0,0-2.5.57,1.83,1.83,0,0,0-1.05,1.68,1.19,1.19,0,0,0,.45,1,4.84,4.84,0,0,0,1.18.7,14.56,14.56,0,0,0,1.68.6c.64.19,1.29.4,2,.62s1.55.57,2.33.92A8,8,0,0,1,308.46,55a6.15,6.15,0,0,1,2.07,4.8,5.88,5.88,0,0,1-.77,3,7.18,7.18,0,0,1-2,2.23,9,9,0,0,1-2.85,1.39A11.5,11.5,0,0,1,301.6,66.89Z"/><path class="cls-2" d="M326.36,66.89a9.73,9.73,0,0,1-3.28-.58,6.38,6.38,0,0,1-2.76-1.92,7,7,0,0,1-1.25-2.4,12.15,12.15,0,0,1-.43-3.55V47.92h-5.52V43.36h5.52V35.68h5.52v7.68h7v4.56h-7V58.48a7.57,7.57,0,0,0,.14,1.71,2,2,0,0,0,.53,1,2.84,2.84,0,0,0,2.25.87,5.27,5.27,0,0,0,1.52-.22,5.59,5.59,0,0,0,1.32-.6l1.92,4a9.09,9.09,0,0,1-2.55,1.23A10.07,10.07,0,0,1,326.36,66.89Z"/><path class="cls-2" d="M356.89,54.79c0,.22,0,.46,0,.72s0,.5-.07.72H340.09a6.07,6.07,0,0,0,.67,2.37,6.26,6.26,0,0,0,1.49,1.85,6.94,6.94,0,0,0,2.11,1.2,8.23,8.23,0,0,0,6.29-.43,11.87,11.87,0,0,0,2.59-1.82l3.17,3.07a11.09,11.09,0,0,1-4.32,3.29,12.92,12.92,0,0,1-5.18,1.13A13.25,13.25,0,0,1,342,66a11,11,0,0,1-6.29-6.27,12.88,12.88,0,0,1-.89-4.85,13.85,13.85,0,0,1,.79-4.68,11.87,11.87,0,0,1,2.24-3.81,10.12,10.12,0,0,1,3.52-2.57,11.44,11.44,0,0,1,4.68-.94,10.32,10.32,0,0,1,4.44.94,10.59,10.59,0,0,1,3.44,2.54,11.19,11.19,0,0,1,2.2,3.8A13.64,13.64,0,0,1,356.89,54.79Zm-5.57-2.64a5.42,5.42,0,0,0-1.8-3.31,5.15,5.15,0,0,0-3.57-1.3,5.34,5.34,0,0,0-3.67,1.34,5.54,5.54,0,0,0-1.85,3.27Z"/><path class="cls-2" d="M362.7,43.36H368V46a7.64,7.64,0,0,1,2.76-2,9.75,9.75,0,0,1,4.1-.84,12,12,0,0,1,1.73.15v5a6.58,6.58,0,0,0-.86-.12c-.29,0-.64,0-1.06,0a7.9,7.9,0,0,0-3.62.89,7.14,7.14,0,0,0-2.86,2.71V66.4H362.7Z"/><path class="cls-2" d="M392.22,32.32h5.52V66.4h-5.52Z"/><path class="cls-2" d="M422,66.4V64.24a11.64,11.64,0,0,1-3,1.85,9.87,9.87,0,0,1-4.08.8,10.7,10.7,0,0,1-3.69-.65,10.85,10.85,0,0,1-3.22-1.85,11.93,11.93,0,0,1-3.19-4.15,12.74,12.74,0,0,1,0-10.71,12,12,0,0,1,3.19-4.15,10.62,10.62,0,0,1,3.24-1.85,11.5,11.5,0,0,1,3.91-.65,9.27,9.27,0,0,1,3.87.8A11.78,11.78,0,0,1,422,45.52V43.36h5.18v23Zm-6.34-4.56a7.53,7.53,0,0,0,3.39-.74A7.63,7.63,0,0,0,421.69,59V50.8a8.68,8.68,0,0,0-2.59-2.08,6.63,6.63,0,0,0-3.17-.8,6.82,6.82,0,0,0-2.71.53,6.31,6.31,0,0,0-2.11,1.47,6.78,6.78,0,0,0-1.4,2.2,7.9,7.9,0,0,0,0,5.53,7.24,7.24,0,0,0,1.37,2.2,6.34,6.34,0,0,0,2,1.47A6.25,6.25,0,0,0,415.69,61.84Z"/><path class="cls-2" d="M434.8,32.32h5.52V45.24a9.58,9.58,0,0,1,3.16-1.8,10.56,10.56,0,0,1,3.32-.56,11.54,11.54,0,0,1,3.91.65A10.62,10.62,0,0,1,454,45.38a12.14,12.14,0,0,1,3.19,4.15,12.74,12.74,0,0,1,0,10.71A12,12,0,0,1,454,64.39a10.85,10.85,0,0,1-3.22,1.85,10.7,10.7,0,0,1-3.69.65,9.87,9.87,0,0,1-4.08-.8,11.47,11.47,0,0,1-3-1.85V66.4H434.8Zm11.52,29.52a6.2,6.2,0,0,0,2.56-.52,6.13,6.13,0,0,0,2-1.47,6.88,6.88,0,0,0,1.37-2.2,7.75,7.75,0,0,0,0-5.53,6.75,6.75,0,0,0-1.39-2.2,6.41,6.41,0,0,0-2.11-1.47,6.82,6.82,0,0,0-2.71-.53,6.63,6.63,0,0,0-3.17.8,8.68,8.68,0,0,0-2.59,2.08V59a7.32,7.32,0,0,0,6,2.88Z"/><path class="cls-2" d="M471.42,66.89a15.37,15.37,0,0,1-4.95-.8,13.58,13.58,0,0,1-4.36-2.47L464.84,60a11.26,11.26,0,0,0,3,1.61,10.18,10.18,0,0,0,3.45.6,4.6,4.6,0,0,0,2.45-.65,2,2,0,0,0,1.06-1.75,1.8,1.8,0,0,0-1-1.63,12.1,12.1,0,0,0-2.47-1.06c-.74-.25-1.49-.49-2.26-.72a14.66,14.66,0,0,1-2.25-.86,8.75,8.75,0,0,1-2.67-2A5.07,5.07,0,0,1,463.07,50a6.07,6.07,0,0,1,.74-3.05,7.13,7.13,0,0,1,2-2.23,8.7,8.7,0,0,1,2.78-1.37,11.5,11.5,0,0,1,3.19-.46,12.27,12.27,0,0,1,4.35.75,11.86,11.86,0,0,1,3.29,1.8l-2.5,3.69a12.16,12.16,0,0,0-2.23-1.1,7.25,7.25,0,0,0-2.52-.43,5.21,5.21,0,0,0-2.5.57,1.83,1.83,0,0,0-1.05,1.68,1.19,1.19,0,0,0,.45,1,4.84,4.84,0,0,0,1.18.7,14.56,14.56,0,0,0,1.68.6c.64.19,1.29.4,2,.62s1.54.57,2.32.92A8,8,0,0,1,478.28,55a6.15,6.15,0,0,1,2.07,4.8,5.88,5.88,0,0,1-.77,3,7.18,7.18,0,0,1-2,2.23,9,9,0,0,1-2.85,1.39A11.5,11.5,0,0,1,471.42,66.89Z"/></svg>