<?xml version="1.0" encoding="UTF-8"?><svg id="a" xmlns="http://www.w3.org/2000/svg" viewBox="0 0 1344 196"><defs><style>.b{fill:#ff5e4c;}.c{fill:#fff;stroke:#000;stroke-linecap:round;stroke-miterlimit:10;stroke-width:6px;}.d{fill:#5451ff;}</style></defs><g><g><path class="d" d="M27.5,3.46H169.5c13.12,0,23.78,10.65,23.78,23.78V169.24c0,13.12-10.65,23.78-23.78,23.78H27.5c-13.12,0-23.78-10.65-23.78-23.78V27.24C3.72,14.12,14.37,3.46,27.5,3.46Z"/><path d="M169.5,6.46c11.46,0,20.78,9.32,20.78,20.78V169.24c0,11.46-9.32,20.78-20.78,20.78H27.5c-11.46,0-20.78-9.32-20.78-20.78V27.24C6.72,15.78,16.04,6.46,27.5,6.46H169.5m0-6H27.5C12.71,.46,.72,12.45,.72,27.24V169.24c0,14.79,11.99,26.78,26.78,26.78H169.5c14.79,0,26.78-11.99,26.78-26.78V27.24c0-14.79-11.99-26.78-26.78-26.78h0Z"/></g><g><path class="c" d="M137.67,128.01H59.33c-5.82,0-9.42-6.33-6.45-11.33l28.64-48.2,16.98,28.08,16.98-28.08,28.64,48.2c2.97,5-.63,11.33-6.45,11.33Z"/><path class="b" d="M81.12,127.67l56.54,.34c5.82,0,9.42-6.33,6.45-11.33l-28.64-48.2-34.35,59.2Z"/><path d="M137.67,131.01H59.33c-3.82,0-7.24-1.98-9.13-5.31-1.89-3.32-1.85-7.27,.1-10.56l31.2-52.51,17,28.12,17-28.12,31.2,52.51c1.95,3.29,1.99,7.23,.1,10.56-1.89,3.32-5.3,5.31-9.13,5.31Zm-56.13-56.7l-26.08,43.9c-.84,1.41-.85,3.1-.04,4.53,.81,1.43,2.27,2.28,3.91,2.28h78.34c1.64,0,3.1-.85,3.91-2.28,.81-1.42,.79-3.12-.04-4.53l-26.08-43.9-16.96,28.05-16.96-28.05Z"/></g></g><g><path d="M283.65,125.2c-1.95,0-3.86-.33-5.72-1-1.87-.67-3.47-1.78-4.8-3.34-.95-1.17-1.67-2.56-2.17-4.18-.5-1.62-.75-3.68-.75-6.18v-18.3h-9.61v-7.94h9.61v-13.37h9.61v13.37h12.12v7.94h-12.12v18.38c0,1.28,.08,2.27,.25,2.97,.17,.7,.47,1.27,.92,1.71,.89,1,2.2,1.5,3.93,1.5,.95,0,1.82-.12,2.63-.38s1.57-.6,2.3-1.04l3.34,7.02c-1.39,.95-2.87,1.66-4.43,2.13-1.56,.47-3.26,.71-5.1,.71Z"/><path d="M336.87,89.94c1.28,1.62,2.26,3.54,2.92,5.76,.67,2.23,1,5.07,1,8.52v20.14h-9.61v-20.97c0-2.23-.21-3.96-.63-5.18-.42-1.22-.99-2.23-1.71-3.01-.78-.95-1.78-1.68-3.01-2.21-1.23-.53-2.54-.79-3.93-.79-2.4,0-4.48,.54-6.27,1.63-1.78,1.09-3.15,2.21-4.09,3.38v27.16h-9.61v-59.32h9.61v22.39c1.39-1.11,3.04-2.06,4.93-2.84,1.89-.78,4.01-1.17,6.35-1.17,2.84,0,5.47,.57,7.9,1.71,2.42,1.14,4.47,2.74,6.14,4.8Z"/><path d="M388.84,104.14c0,.39-.01,.81-.04,1.25-.03,.45-.07,.86-.12,1.25h-29.08c.11,1.5,.5,2.88,1.17,4.14,.67,1.25,1.53,2.33,2.59,3.22,1.06,.89,2.28,1.59,3.68,2.09,1.39,.5,2.9,.75,4.51,.75,2.45,0,4.6-.5,6.43-1.5,1.84-1,3.34-2.06,4.51-3.18l5.51,5.35c-2.01,2.51-4.51,4.42-7.52,5.72-3.01,1.31-6.02,1.96-9.02,1.96s-5.97-.52-8.56-1.55-4.8-2.46-6.64-4.3-3.27-4.04-4.3-6.6c-1.03-2.56-1.55-5.37-1.55-8.44,0-2.9,.46-5.61,1.38-8.15,.92-2.53,2.21-4.75,3.88-6.64,1.67-1.89,3.72-3.38,6.14-4.47,2.42-1.09,5.14-1.63,8.15-1.63,2.84,0,5.42,.54,7.73,1.63,2.31,1.09,4.3,2.56,5.97,4.43,1.67,1.87,2.95,4.07,3.84,6.6,.89,2.54,1.34,5.22,1.34,8.06Zm-9.69-4.6c-.39-2.34-1.43-4.26-3.13-5.76-1.7-1.5-3.77-2.26-6.22-2.26s-4.64,.78-6.39,2.34c-1.75,1.56-2.83,3.45-3.22,5.68h18.97Z"/><path d="M476.32,102.64c0-2.12-.22-3.79-.67-5.01-.45-1.22-1.09-2.23-1.92-3.01-.78-.78-1.7-1.38-2.76-1.8-1.06-.42-2.2-.63-3.43-.63s-2.45,.18-3.51,.54c-1.06,.36-2.02,.81-2.88,1.34-.86,.53-1.63,1.12-2.3,1.75-.67,.64-1.25,1.24-1.75,1.8,.11,.84,.21,1.71,.29,2.63s.12,1.91,.12,2.97v21.14h-9.61v-21.72c0-2.12-.22-3.79-.67-5.01-.45-1.22-1.09-2.23-1.92-3.01-.78-.78-1.7-1.38-2.76-1.8-1.06-.42-2.2-.63-3.43-.63-2.23,0-4.22,.54-5.97,1.63-1.75,1.09-3.11,2.21-4.05,3.38v27.16h-9.61v-40.11h9.02v3.76c1.39-1.22,3.09-2.3,5.1-3.22,2-.92,4.15-1.38,6.43-1.38,2.67,0,5.19,.58,7.56,1.75,2.37,1.17,4.33,2.73,5.89,4.68,1.73-1.78,3.76-3.3,6.1-4.55,2.34-1.25,5.12-1.88,8.36-1.88,2.84,0,5.53,.57,8.06,1.71,2.53,1.14,4.61,2.74,6.22,4.8,1.28,1.56,2.21,3.4,2.8,5.51,.58,2.12,.88,4.76,.88,7.94v20.97h-9.61v-21.72Z"/><path d="M527.46,124.36v-3.76c-1.39,1.23-3.12,2.3-5.18,3.22-2.06,.92-4.43,1.38-7.1,1.38-2.23,0-4.37-.38-6.43-1.13s-3.93-1.82-5.6-3.22c-2.34-1.95-4.19-4.36-5.56-7.23-1.37-2.87-2.05-5.97-2.05-9.32s.68-6.45,2.05-9.32c1.36-2.87,3.22-5.28,5.56-7.23,1.67-1.39,3.55-2.46,5.64-3.22s4.36-1.13,6.81-1.13,4.69,.46,6.73,1.38c2.03,.92,3.75,1.99,5.14,3.22v-3.76h9.02v40.11h-9.02Zm-11.03-7.94c2.17,0,4.14-.43,5.89-1.29,1.75-.86,3.27-2.1,4.55-3.72v-14.2c-1.28-1.5-2.79-2.71-4.51-3.63-1.73-.92-3.56-1.38-5.51-1.38-1.73,0-3.3,.31-4.72,.92-1.42,.61-2.65,1.46-3.68,2.55-1.03,1.09-1.84,2.37-2.42,3.84-.58,1.48-.88,3.08-.88,4.8s.29,3.33,.88,4.8c.58,1.48,1.38,2.76,2.38,3.84,1,1.09,2.19,1.94,3.55,2.55,1.36,.61,2.85,.92,4.47,.92Z"/><path d="M562.13,125.2c-3.01,0-5.88-.46-8.61-1.38-2.73-.92-5.26-2.35-7.6-4.3l4.76-6.35c1.56,1.17,3.31,2.1,5.26,2.8,1.95,.7,3.95,1.04,6.02,1.04,1.62,0,3.04-.38,4.26-1.13,1.22-.75,1.84-1.77,1.84-3.05s-.57-2.17-1.71-2.84c-1.14-.67-2.58-1.28-4.3-1.84-1.28-.45-2.59-.86-3.93-1.25-1.34-.39-2.65-.89-3.93-1.5-1.78-.89-3.33-2.07-4.64-3.55-1.31-1.48-1.96-3.5-1.96-6.06,0-2,.43-3.77,1.29-5.31,.86-1.53,2.01-2.83,3.43-3.89,1.42-1.06,3.04-1.85,4.85-2.38,1.81-.53,3.66-.79,5.56-.79,2.73,0,5.25,.43,7.56,1.29,2.31,.86,4.22,1.91,5.72,3.13l-4.34,6.43c-1.23-.78-2.52-1.42-3.88-1.92-1.37-.5-2.83-.75-4.39-.75-1.67,0-3.12,.33-4.34,1-1.23,.67-1.84,1.64-1.84,2.92,0,.67,.26,1.23,.79,1.67,.53,.45,1.21,.85,2.05,1.21,.84,.36,1.81,.71,2.92,1.04,1.11,.33,2.26,.7,3.43,1.09,1.34,.45,2.69,.97,4.05,1.59,1.36,.61,2.58,1.39,3.63,2.34,1.06,.95,1.92,2.1,2.59,3.47,.67,1.37,1,2.99,1,4.89s-.45,3.69-1.34,5.22c-.89,1.53-2.06,2.83-3.51,3.89-1.45,1.06-3.11,1.87-4.97,2.42-1.87,.56-3.77,.84-5.72,.84Z"/><path d="M605.24,125.2c-1.95,0-3.86-.33-5.72-1-1.87-.67-3.47-1.78-4.8-3.34-.95-1.17-1.67-2.56-2.17-4.18-.5-1.62-.75-3.68-.75-6.18v-18.3h-9.61v-7.94h9.61v-13.37h9.61v13.37h12.12v7.94h-12.12v18.38c0,1.28,.08,2.27,.25,2.97,.17,.7,.47,1.27,.92,1.71,.89,1,2.2,1.5,3.93,1.5,.95,0,1.82-.12,2.63-.38s1.57-.6,2.3-1.04l3.34,7.02c-1.39,.95-2.87,1.66-4.43,2.13-1.56,.47-3.26,.71-5.1,.71Z"/><path d="M658.38,104.14c0,.39-.01,.81-.04,1.25-.03,.45-.07,.86-.12,1.25h-29.08c.11,1.5,.5,2.88,1.17,4.14,.67,1.25,1.53,2.33,2.59,3.22,1.06,.89,2.28,1.59,3.68,2.09,1.39,.5,2.9,.75,4.51,.75,2.45,0,4.6-.5,6.43-1.5,1.84-1,3.34-2.06,4.51-3.18l5.51,5.35c-2.01,2.51-4.51,4.42-7.52,5.72-3.01,1.31-6.02,1.96-9.02,1.96s-5.97-.52-8.56-1.55-4.8-2.46-6.64-4.3-3.27-4.04-4.3-6.6c-1.03-2.56-1.55-5.37-1.55-8.44,0-2.9,.46-5.61,1.38-8.15,.92-2.53,2.21-4.75,3.88-6.64,1.67-1.89,3.72-3.38,6.14-4.47,2.42-1.09,5.14-1.63,8.15-1.63,2.84,0,5.42,.54,7.73,1.63,2.31,1.09,4.3,2.56,5.97,4.43,1.67,1.87,2.95,4.07,3.84,6.6,.89,2.54,1.34,5.22,1.34,8.06Zm-9.69-4.6c-.39-2.34-1.43-4.26-3.13-5.76-1.7-1.5-3.77-2.26-6.22-2.26s-4.64,.78-6.39,2.34c-1.75,1.56-2.83,3.45-3.22,5.68h18.97Z"/><path d="M668.49,84.26h9.27v4.6c1.11-1.39,2.72-2.58,4.8-3.55,2.09-.97,4.47-1.46,7.14-1.46,.84,0,1.84,.08,3.01,.25v8.77c-.5-.11-1-.18-1.5-.21-.5-.03-1.12-.04-1.84-.04-2.17,0-4.28,.52-6.31,1.55-2.03,1.03-3.69,2.6-4.97,4.72v25.48h-9.61v-40.11Z"/><path d="M719.88,65.04h9.61v59.32h-9.61v-59.32Z"/><path d="M771.76,124.36v-3.76c-1.39,1.23-3.12,2.3-5.18,3.22-2.06,.92-4.43,1.38-7.1,1.38-2.23,0-4.37-.38-6.43-1.13s-3.93-1.82-5.6-3.22c-2.34-1.95-4.19-4.36-5.56-7.23-1.37-2.87-2.05-5.97-2.05-9.32s.68-6.45,2.05-9.32c1.36-2.87,3.22-5.28,5.56-7.23,1.67-1.39,3.55-2.46,5.64-3.22s4.36-1.13,6.81-1.13,4.69,.46,6.73,1.38c2.03,.92,3.75,1.99,5.14,3.22v-3.76h9.02v40.11h-9.02Zm-11.03-7.94c2.17,0,4.14-.43,5.89-1.29,1.75-.86,3.27-2.1,4.55-3.72v-14.2c-1.28-1.5-2.79-2.71-4.51-3.63-1.73-.92-3.56-1.38-5.51-1.38-1.73,0-3.3,.31-4.72,.92-1.42,.61-2.65,1.46-3.68,2.55-1.03,1.09-1.84,2.37-2.42,3.84-.58,1.48-.88,3.08-.88,4.8s.29,3.33,.88,4.8c.58,1.48,1.38,2.76,2.38,3.84,1,1.09,2.19,1.94,3.55,2.55,1.36,.61,2.85,.92,4.47,.92Z"/><path d="M793.99,65.04h9.61v22.48c1.73-1.45,3.56-2.49,5.51-3.13,1.95-.64,3.87-.96,5.77-.96,2.45,0,4.72,.38,6.81,1.13s3.97,1.83,5.64,3.22c2.34,1.95,4.19,4.36,5.56,7.23,1.36,2.87,2.05,5.97,2.05,9.32s-.68,6.45-2.05,9.32c-1.37,2.87-3.22,5.28-5.56,7.23-1.67,1.39-3.54,2.46-5.6,3.22-2.06,.75-4.21,1.13-6.43,1.13-2.67,0-5.04-.46-7.1-1.38-2.06-.92-3.79-1.99-5.18-3.22v3.76h-9.02v-59.32Zm20.05,51.39c1.62,0,3.1-.31,4.47-.92,1.36-.61,2.55-1.46,3.55-2.55,1-1.09,1.8-2.37,2.38-3.84,.58-1.48,.88-3.08,.88-4.8s-.29-3.33-.88-4.8c-.58-1.47-1.39-2.76-2.42-3.84-1.03-1.09-2.26-1.94-3.68-2.55-1.42-.61-2.99-.92-4.72-.92-1.95,0-3.79,.46-5.51,1.38-1.73,.92-3.23,2.13-4.51,3.63v14.2c1.28,1.62,2.8,2.86,4.55,3.72,1.75,.86,3.72,1.29,5.89,1.29Z"/><path d="M857.74,125.2c-3.01,0-5.88-.46-8.61-1.38-2.73-.92-5.26-2.35-7.6-4.3l4.76-6.35c1.56,1.17,3.31,2.1,5.26,2.8,1.95,.7,3.95,1.04,6.02,1.04,1.62,0,3.04-.38,4.26-1.13,1.22-.75,1.84-1.77,1.84-3.05s-.57-2.17-1.71-2.84c-1.14-.67-2.58-1.28-4.3-1.84-1.28-.45-2.59-.86-3.93-1.25-1.34-.39-2.65-.89-3.93-1.5-1.78-.89-3.33-2.07-4.64-3.55-1.31-1.48-1.96-3.5-1.96-6.06,0-2,.43-3.77,1.29-5.31,.86-1.53,2.01-2.83,3.43-3.89,1.42-1.06,3.04-1.85,4.85-2.38,1.81-.53,3.66-.79,5.56-.79,2.73,0,5.25,.43,7.56,1.29,2.31,.86,4.22,1.91,5.72,3.13l-4.34,6.43c-1.23-.78-2.52-1.42-3.88-1.92-1.37-.5-2.83-.75-4.39-.75-1.67,0-3.12,.33-4.34,1-1.23,.67-1.84,1.64-1.84,2.92,0,.67,.26,1.23,.79,1.67,.53,.45,1.21,.85,2.05,1.21,.84,.36,1.81,.71,2.92,1.04,1.11,.33,2.26,.7,3.43,1.09,1.34,.45,2.69,.97,4.05,1.59,1.36,.61,2.58,1.39,3.63,2.34,1.06,.95,1.92,2.1,2.59,3.47,.67,1.37,1,2.99,1,4.89s-.45,3.69-1.34,5.22c-.89,1.53-2.06,2.83-3.51,3.89-1.45,1.06-3.11,1.87-4.97,2.42-1.87,.56-3.77,.84-5.72,.84Z"/></g><g><path d="M1012.21,124.65v-3.76c-1.39,1.23-3.12,2.3-5.18,3.22-2.06,.92-4.43,1.38-7.1,1.38-2.23,0-4.37-.38-6.43-1.13s-3.93-1.82-5.6-3.22c-2.34-1.95-4.19-4.36-5.56-7.23-1.37-2.87-2.05-5.97-2.05-9.32s.68-6.45,2.05-9.32c1.36-2.87,3.22-5.28,5.56-7.23,1.67-1.39,3.55-2.46,5.64-3.22s4.36-1.13,6.81-1.13,4.69,.46,6.73,1.38c2.03,.92,3.75,1.99,5.14,3.22v-3.76h9.02v40.11h-9.02Zm-11.03-7.94c2.17,0,4.14-.43,5.89-1.29,1.75-.86,3.27-2.1,4.55-3.72v-14.2c-1.28-1.5-2.79-2.71-4.51-3.63-1.73-.92-3.56-1.38-5.51-1.38-1.73,0-3.3,.31-4.72,.92-1.42,.61-2.65,1.46-3.68,2.55-1.03,1.09-1.84,2.37-2.42,3.84-.58,1.48-.88,3.08-.88,4.8s.29,3.33,.88,4.8c.58,1.48,1.38,2.76,2.38,3.84,1,1.09,2.19,1.94,3.55,2.55,1.36,.61,2.85,.92,4.47,.92Z"/><path d="M1052.65,92.49c-1.73,0-3.3,.32-4.72,.96-1.42,.64-2.63,1.52-3.63,2.63-1,1.12-1.78,2.4-2.34,3.84-.56,1.45-.83,3.01-.83,4.68s.28,3.16,.83,4.64c.56,1.48,1.35,2.77,2.38,3.89,1.03,1.12,2.28,1.99,3.76,2.63,1.48,.64,3.13,.96,4.97,.96,2.78,0,5.05-.57,6.81-1.71,1.75-1.14,3.22-2.41,4.39-3.8l6.52,5.18c-1.95,2.84-4.47,5.07-7.56,6.68-3.09,1.62-6.48,2.42-10.15,2.42-3.18,0-6.07-.54-8.69-1.63-2.62-1.09-4.89-2.56-6.81-4.43-1.92-1.87-3.41-4.07-4.47-6.6-1.06-2.53-1.59-5.28-1.59-8.23s.53-5.63,1.59-8.19c1.06-2.56,2.52-4.78,4.39-6.64s4.09-3.34,6.68-4.43c2.59-1.09,5.42-1.63,8.48-1.63,3.4,0,6.53,.71,9.4,2.13,2.87,1.42,5.36,3.44,7.48,6.06l-6.27,5.51c-1.34-1.39-2.81-2.56-4.43-3.51-1.62-.95-3.68-1.42-6.18-1.42Z"/><path d="M1108.3,124.65v-3.76c-1.39,1.23-3.12,2.3-5.18,3.22-2.06,.92-4.43,1.38-7.1,1.38-2.23,0-4.37-.38-6.43-1.13s-3.93-1.82-5.6-3.22c-2.34-1.95-4.19-4.36-5.56-7.23-1.37-2.87-2.05-5.97-2.05-9.32s.68-6.45,2.05-9.32c1.36-2.87,3.22-5.28,5.56-7.23,1.67-1.39,3.55-2.46,5.64-3.22s4.36-1.13,6.81-1.13,4.69,.46,6.73,1.38c2.03,.92,3.75,1.99,5.14,3.22v-3.76h9.02v40.11h-9.02Zm-11.03-7.94c2.17,0,4.14-.43,5.89-1.29,1.75-.86,3.27-2.1,4.55-3.72v-14.2c-1.28-1.5-2.79-2.71-4.51-3.63-1.73-.92-3.56-1.38-5.51-1.38-1.73,0-3.3,.31-4.72,.92-1.42,.61-2.65,1.46-3.68,2.55-1.03,1.09-1.84,2.37-2.42,3.84-.58,1.48-.88,3.08-.88,4.8s.29,3.33,.88,4.8c.58,1.48,1.38,2.76,2.38,3.84,1,1.09,2.19,1.94,3.55,2.55,1.36,.61,2.85,.92,4.47,.92Z"/><path d="M1168.62,124.65h-9.02v-3.76c-1.39,1.23-3.12,2.3-5.18,3.22-2.06,.92-4.43,1.38-7.1,1.38-2.23,0-4.37-.38-6.43-1.13s-3.93-1.82-5.6-3.22c-2.34-1.95-4.19-4.36-5.56-7.23-1.37-2.87-2.05-5.97-2.05-9.32s.68-6.45,2.05-9.32c1.36-2.87,3.22-5.28,5.56-7.23,1.67-1.39,3.55-2.46,5.64-3.22s4.36-1.13,6.81-1.13c1.89,0,3.82,.32,5.77,.96,1.95,.64,3.79,1.69,5.51,3.13v-22.48h9.61v59.32Zm-20.05-7.94c2.17,0,4.14-.43,5.89-1.29,1.75-.86,3.27-2.1,4.55-3.72v-14.2c-1.28-1.5-2.79-2.71-4.51-3.63-1.73-.92-3.56-1.38-5.51-1.38-1.73,0-3.3,.31-4.72,.92-1.42,.61-2.65,1.46-3.68,2.55-1.03,1.09-1.84,2.37-2.42,3.84-.58,1.48-.88,3.08-.88,4.8s.29,3.33,.88,4.8c.58,1.48,1.38,2.76,2.38,3.84,1,1.09,2.19,1.94,3.55,2.55,1.36,.61,2.85,.92,4.47,.92Z"/><path d="M1217.42,104.43c0,.39-.01,.81-.04,1.25-.03,.45-.07,.86-.12,1.25h-29.08c.11,1.5,.5,2.88,1.17,4.14,.67,1.25,1.53,2.33,2.59,3.22,1.06,.89,2.28,1.59,3.68,2.09,1.39,.5,2.9,.75,4.51,.75,2.45,0,4.6-.5,6.43-1.5,1.84-1,3.34-2.06,4.51-3.18l5.51,5.35c-2.01,2.51-4.51,4.42-7.52,5.72-3.01,1.31-6.02,1.96-9.02,1.96s-5.97-.52-8.56-1.55-4.8-2.46-6.64-4.3-3.27-4.04-4.3-6.6c-1.03-2.56-1.55-5.37-1.55-8.44,0-2.9,.46-5.61,1.38-8.15,.92-2.53,2.21-4.75,3.88-6.64,1.67-1.89,3.72-3.38,6.14-4.47,2.42-1.09,5.14-1.63,8.15-1.63,2.84,0,5.42,.54,7.73,1.63,2.31,1.09,4.3,2.56,5.97,4.43,1.67,1.87,2.95,4.07,3.84,6.6,.89,2.54,1.34,5.22,1.34,8.06Zm-9.69-4.6c-.39-2.34-1.43-4.26-3.13-5.76-1.7-1.5-3.77-2.26-6.22-2.26s-4.64,.78-6.39,2.34c-1.75,1.56-2.83,3.45-3.22,5.68h18.97Z"/><path d="M1284.34,102.93c0-2.12-.22-3.79-.67-5.01-.45-1.22-1.09-2.23-1.92-3.01-.78-.78-1.7-1.38-2.76-1.8-1.06-.42-2.2-.63-3.43-.63s-2.45,.18-3.51,.54c-1.06,.36-2.02,.81-2.88,1.34-.86,.53-1.63,1.12-2.3,1.75-.67,.64-1.25,1.24-1.75,1.8,.11,.84,.21,1.71,.29,2.63s.12,1.91,.12,2.97v21.14h-9.61v-21.72c0-2.12-.22-3.79-.67-5.01-.45-1.22-1.09-2.23-1.92-3.01-.78-.78-1.7-1.38-2.76-1.8-1.06-.42-2.2-.63-3.43-.63-2.23,0-4.22,.54-5.97,1.63-1.75,1.09-3.11,2.21-4.05,3.38v27.16h-9.61v-40.11h9.02v3.76c1.39-1.22,3.09-2.3,5.1-3.22,2-.92,4.15-1.38,6.43-1.38,2.67,0,5.19,.58,7.56,1.75,2.37,1.17,4.33,2.73,5.89,4.68,1.73-1.78,3.76-3.3,6.1-4.55,2.34-1.25,5.12-1.88,8.36-1.88,2.84,0,5.53,.57,8.06,1.71,2.53,1.14,4.61,2.74,6.22,4.8,1.28,1.56,2.21,3.4,2.8,5.51,.58,2.12,.88,4.76,.88,7.94v20.97h-9.61v-21.72Z"/><path d="M1333.97,84.55h9.86l-27.32,59.32h-9.86l10.61-22.81-18.13-36.51h10.28l12.78,25.73,11.78-25.73Z"/></g><circle class="d" cx="928.56" cy="104.71" r="15.88"/></svg>