<?xml version="1.0" encoding="UTF-8"?><svg id="a" xmlns="http://www.w3.org/2000/svg" viewBox="0 0 863 196"><defs><style>.b{fill:#ff5e4c;}.c{fill:#fff;stroke:#000;stroke-linecap:round;stroke-miterlimit:10;stroke-width:6px;}.d{fill:#5451ff;}</style></defs><g><path d="M283.65,125.2c-1.95,0-3.86-.33-5.72-1-1.87-.67-3.47-1.78-4.8-3.34-.95-1.17-1.67-2.56-2.17-4.18-.5-1.62-.75-3.68-.75-6.18v-18.3h-9.61v-7.94h9.61v-13.37h9.61v13.37h12.12v7.94h-12.12v18.38c0,1.28,.08,2.27,.25,2.97,.17,.7,.47,1.27,.92,1.71,.89,1,2.2,1.5,3.93,1.5,.95,0,1.82-.12,2.63-.38s1.57-.6,2.3-1.04l3.34,7.02c-1.39,.95-2.87,1.66-4.43,2.13-1.56,.47-3.26,.71-5.1,.71Z"/><path d="M358.76,102.64c0-2.12-.22-3.79-.67-5.01-.45-1.22-1.09-2.23-1.92-3.01-.78-.78-1.7-1.38-2.76-1.8-1.06-.42-2.2-.63-3.43-.63s-2.45,.18-3.51,.54c-1.06,.36-2.02,.81-2.88,1.34-.86,.53-1.63,1.12-2.3,1.75-.67,.64-1.25,1.24-1.75,1.8,.11,.84,.21,1.71,.29,2.63s.12,1.91,.12,2.97v21.14h-9.61v-21.72c0-2.12-.22-3.79-.67-5.01-.45-1.22-1.09-2.23-1.92-3.01-.78-.78-1.7-1.38-2.76-1.8-1.06-.42-2.2-.63-3.43-.63-2.23,0-4.22,.54-5.97,1.63-1.75,1.09-3.11,2.21-4.05,3.38v27.16h-9.61v-40.11h9.02v3.76c1.39-1.22,3.09-2.3,5.1-3.22,2-.92,4.15-1.38,6.43-1.38,2.67,0,5.19,.58,7.56,1.75,2.37,1.17,4.33,2.73,5.89,4.68,1.73-1.78,3.76-3.3,6.1-4.55,2.34-1.25,5.12-1.88,8.36-1.88,2.84,0,5.53,.57,8.06,1.71,2.53,1.14,4.61,2.74,6.22,4.8,1.28,1.56,2.21,3.4,2.8,5.51,.58,2.12,.88,4.76,.88,7.94v20.97h-9.61v-21.72Z"/><path d="M380.82,65.04h9.61v59.32h-9.61v-59.32Z"/></g><g><path d="M531.21,124.36v-3.76c-1.39,1.23-3.12,2.3-5.18,3.22-2.06,.92-4.43,1.38-7.1,1.38-2.23,0-4.37-.38-6.43-1.13s-3.93-1.82-5.6-3.22c-2.34-1.95-4.19-4.36-5.56-7.23-1.37-2.87-2.05-5.97-2.05-9.32s.68-6.45,2.05-9.32c1.36-2.87,3.22-5.28,5.56-7.23,1.67-1.39,3.55-2.46,5.64-3.22s4.36-1.13,6.81-1.13,4.69,.46,6.73,1.38c2.03,.92,3.75,1.99,5.14,3.22v-3.76h9.02v40.11h-9.02Zm-11.03-7.94c2.17,0,4.14-.43,5.89-1.29,1.75-.86,3.27-2.1,4.55-3.72v-14.2c-1.28-1.5-2.79-2.71-4.51-3.63-1.73-.92-3.56-1.38-5.51-1.38-1.73,0-3.3,.31-4.72,.92-1.42,.61-2.65,1.46-3.68,2.55-1.03,1.09-1.84,2.37-2.42,3.84-.58,1.48-.88,3.08-.88,4.8s.29,3.33,.88,4.8c.58,1.48,1.38,2.76,2.38,3.84,1,1.09,2.19,1.94,3.55,2.55,1.36,.61,2.85,.92,4.47,.92Z"/><path d="M571.65,92.19c-1.73,0-3.3,.32-4.72,.96-1.42,.64-2.63,1.52-3.63,2.63-1,1.12-1.78,2.4-2.34,3.84-.56,1.45-.83,3.01-.83,4.68s.28,3.16,.83,4.64c.56,1.48,1.35,2.77,2.38,3.89,1.03,1.12,2.28,1.99,3.76,2.63,1.48,.64,3.13,.96,4.97,.96,2.78,0,5.05-.57,6.81-1.71,1.75-1.14,3.22-2.41,4.39-3.8l6.52,5.18c-1.95,2.84-4.47,5.07-7.56,6.68-3.09,1.62-6.48,2.42-10.15,2.42-3.18,0-6.07-.54-8.69-1.63-2.62-1.09-4.89-2.56-6.81-4.43-1.92-1.87-3.41-4.07-4.47-6.6-1.06-2.53-1.59-5.28-1.59-8.23s.53-5.63,1.59-8.19c1.06-2.56,2.52-4.78,4.39-6.64s4.09-3.34,6.68-4.43c2.59-1.09,5.42-1.63,8.48-1.63,3.4,0,6.53,.71,9.4,2.13,2.87,1.42,5.36,3.44,7.48,6.06l-6.27,5.51c-1.34-1.39-2.81-2.56-4.43-3.51-1.62-.95-3.68-1.42-6.18-1.42Z"/><path d="M627.3,124.36v-3.76c-1.39,1.23-3.12,2.3-5.18,3.22-2.06,.92-4.43,1.38-7.1,1.38-2.23,0-4.37-.38-6.43-1.13s-3.93-1.82-5.6-3.22c-2.34-1.95-4.19-4.36-5.56-7.23-1.37-2.87-2.05-5.97-2.05-9.32s.68-6.45,2.05-9.32c1.36-2.87,3.22-5.28,5.56-7.23,1.67-1.39,3.55-2.46,5.64-3.22s4.36-1.13,6.81-1.13,4.69,.46,6.73,1.38c2.03,.92,3.75,1.99,5.14,3.22v-3.76h9.02v40.11h-9.02Zm-11.03-7.94c2.17,0,4.14-.43,5.89-1.29,1.75-.86,3.27-2.1,4.55-3.72v-14.2c-1.28-1.5-2.79-2.71-4.51-3.63-1.73-.92-3.56-1.38-5.51-1.38-1.73,0-3.3,.31-4.72,.92-1.42,.61-2.65,1.46-3.68,2.55-1.03,1.09-1.84,2.37-2.42,3.84-.58,1.48-.88,3.08-.88,4.8s.29,3.33,.88,4.8c.58,1.48,1.38,2.76,2.38,3.84,1,1.09,2.19,1.94,3.55,2.55,1.36,.61,2.85,.92,4.47,.92Z"/><path d="M687.62,124.36h-9.02v-3.76c-1.39,1.23-3.12,2.3-5.18,3.22-2.06,.92-4.43,1.38-7.1,1.38-2.23,0-4.37-.38-6.43-1.13s-3.93-1.82-5.6-3.22c-2.34-1.95-4.19-4.36-5.56-7.23-1.37-2.87-2.05-5.97-2.05-9.32s.68-6.45,2.05-9.32c1.36-2.87,3.22-5.28,5.56-7.23,1.67-1.39,3.55-2.46,5.64-3.22s4.36-1.13,6.81-1.13c1.89,0,3.82,.32,5.77,.96,1.95,.64,3.79,1.69,5.51,3.13v-22.48h9.61v59.32Zm-20.05-7.94c2.17,0,4.14-.43,5.89-1.29,1.75-.86,3.27-2.1,4.55-3.72v-14.2c-1.28-1.5-2.79-2.71-4.51-3.63-1.73-.92-3.56-1.38-5.51-1.38-1.73,0-3.3,.31-4.72,.92-1.42,.61-2.65,1.46-3.68,2.55-1.03,1.09-1.84,2.37-2.42,3.84-.58,1.48-.88,3.08-.88,4.8s.29,3.33,.88,4.8c.58,1.48,1.38,2.76,2.38,3.84,1,1.09,2.19,1.94,3.55,2.55,1.36,.61,2.85,.92,4.47,.92Z"/><path d="M736.42,104.14c0,.39-.01,.81-.04,1.25-.03,.45-.07,.86-.12,1.25h-29.08c.11,1.5,.5,2.88,1.17,4.14,.67,1.25,1.53,2.33,2.59,3.22,1.06,.89,2.28,1.59,3.68,2.09,1.39,.5,2.9,.75,4.51,.75,2.45,0,4.6-.5,6.43-1.5,1.84-1,3.34-2.06,4.51-3.18l5.51,5.35c-2.01,2.51-4.51,4.42-7.52,5.72-3.01,1.31-6.02,1.96-9.02,1.96s-5.97-.52-8.56-1.55-4.8-2.46-6.64-4.3-3.27-4.04-4.3-6.6c-1.03-2.56-1.55-5.37-1.55-8.44,0-2.9,.46-5.61,1.38-8.15,.92-2.53,2.21-4.75,3.88-6.64,1.67-1.89,3.72-3.38,6.14-4.47,2.42-1.09,5.14-1.63,8.15-1.63,2.84,0,5.42,.54,7.73,1.63,2.31,1.09,4.3,2.56,5.97,4.43,1.67,1.87,2.95,4.07,3.84,6.6,.89,2.54,1.34,5.22,1.34,8.06Zm-9.69-4.6c-.39-2.34-1.43-4.26-3.13-5.76-1.7-1.5-3.77-2.26-6.22-2.26s-4.64,.78-6.39,2.34c-1.75,1.56-2.83,3.45-3.22,5.68h18.97Z"/><path d="M803.34,102.64c0-2.12-.22-3.79-.67-5.01-.45-1.22-1.09-2.23-1.92-3.01-.78-.78-1.7-1.38-2.76-1.8-1.06-.42-2.2-.63-3.43-.63s-2.45,.18-3.51,.54c-1.06,.36-2.02,.81-2.88,1.34-.86,.53-1.63,1.12-2.3,1.75-.67,.64-1.25,1.24-1.75,1.8,.11,.84,.21,1.71,.29,2.63s.12,1.91,.12,2.97v21.14h-9.61v-21.72c0-2.12-.22-3.79-.67-5.01-.45-1.22-1.09-2.23-1.92-3.01-.78-.78-1.7-1.38-2.76-1.8-1.06-.42-2.2-.63-3.43-.63-2.23,0-4.22,.54-5.97,1.63-1.75,1.09-3.11,2.21-4.05,3.38v27.16h-9.61v-40.11h9.02v3.76c1.39-1.22,3.09-2.3,5.1-3.22,2-.92,4.15-1.38,6.43-1.38,2.67,0,5.19,.58,7.56,1.75,2.37,1.17,4.33,2.73,5.89,4.68,1.73-1.78,3.76-3.3,6.1-4.55,2.34-1.25,5.12-1.88,8.36-1.88,2.84,0,5.53,.57,8.06,1.71,2.53,1.14,4.61,2.74,6.22,4.8,1.28,1.56,2.21,3.4,2.8,5.51,.58,2.12,.88,4.76,.88,7.94v20.97h-9.61v-21.72Z"/><path d="M852.97,84.26h9.86l-27.32,59.32h-9.86l10.61-22.81-18.13-36.51h10.28l12.78,25.73,11.78-25.73Z"/></g><circle class="d" cx="447.56" cy="98.88" r="15.88"/><g><g><path class="d" d="M27,3.72H169c13.12,0,23.78,10.65,23.78,23.78V169.5c0,13.12-10.65,23.78-23.78,23.78H27c-13.12,0-23.78-10.65-23.78-23.78V27.5C3.22,14.38,13.88,3.72,27,3.72Z"/><path d="M169,6.72c11.46,0,20.78,9.32,20.78,20.78V169.5c0,11.46-9.32,20.78-20.78,20.78H27c-11.46,0-20.78-9.32-20.78-20.78V27.5C6.22,16.04,15.54,6.72,27,6.72H169m0-6H27C12.21,.72,.22,12.71,.22,27.5V169.5c0,14.79,11.99,26.78,26.78,26.78H169c14.79,0,26.78-11.99,26.78-26.78V27.5c0-14.79-11.99-26.78-26.78-26.78h0Z"/></g><g><path class="c" d="M137.17,128.27H58.83c-5.82,0-9.42-6.33-6.45-11.33l28.64-48.2,16.98,28.08,16.98-28.08,28.64,48.2c2.97,5-.63,11.33-6.45,11.33Z"/><path class="b" d="M80.62,127.93l56.54,.34c5.82,0,9.42-6.33,6.45-11.33l-28.64-48.2-34.35,59.2Z"/><path d="M137.17,131.27H58.83c-3.82,0-7.24-1.98-9.13-5.31-1.89-3.32-1.85-7.27,.1-10.56l31.2-52.51,17,28.12,17-28.12,31.2,52.51c1.95,3.29,1.99,7.23,.1,10.56-1.89,3.32-5.3,5.31-9.13,5.31Zm-56.13-56.7l-26.08,43.9c-.84,1.41-.85,3.1-.04,4.53,.81,1.43,2.27,2.28,3.91,2.28h78.34c1.64,0,3.1-.85,3.91-2.28,.81-1.42,.79-3.12-.04-4.53l-26.08-43.9-16.96,28.05-16.96-28.05Z"/></g></g></svg>