<svg id="Group_51" data-name="Group 51" xmlns="http://www.w3.org/2000/svg" width="46" height="46" viewBox="0 0 46 46">
  <g id="Group_15" data-name="Group 15">
    <rect id="Rectangle_Copy_3" data-name="Rectangle Copy 3" width="46" height="46" rx="14" fill="#E2F2FD"/>
  </g>
  <path id="Shape" d="M10.855,17.743a.931.931,0,0,1-.266-.631.887.887,0,0,1,.266-.631l5.2-5a.372.372,0,0,0,0-.56.419.419,0,0,0-.58,0l-5.172,5a1,1,0,0,1-.653.256.954.954,0,0,1-.653-.256.931.931,0,0,1-.266-.631.834.834,0,0,1,.266-.608l5.172-5a.42.42,0,0,0,.121-.28.38.38,0,0,0-.121-.281.457.457,0,0,0-.29-.116.409.409,0,0,0-.29.116l-5.172,5a.913.913,0,0,1-1.282,0,.842.842,0,0,1,0-1.238l5.172-5a.373.373,0,0,0,0-.561.4.4,0,0,0-.58,0l-5.172,5a.91.91,0,0,1-1.281,0,.84.84,0,0,1,0-1.238L8.051,8.425a3.14,3.14,0,0,0,1.256-.747l1.765-1.706a.7.7,0,0,1,.338-.186l2.465-.631a.416.416,0,0,0,.29-.49.435.435,0,0,0-.508-.28l-2.465.63a1.6,1.6,0,0,0-.7.4L8.753,7.094a2.375,2.375,0,0,1-2.78.374c-.023-.023-.048-.047-.048-.07a.084.084,0,0,1,.024-.07L11.8,1.7a6.115,6.115,0,0,1,8.46,0,5.717,5.717,0,0,1,.023,8.2L12.16,17.743a1,1,0,0,1-.653.257A.954.954,0,0,1,10.855,17.743Zm-8.9-7.3A5.844,5.844,0,0,1,0,6.124,5.844,5.844,0,0,1,1.954,1.8,6.867,6.867,0,0,1,6.638,0,6.957,6.957,0,0,1,11,1.507L4.871,7.186a.957.957,0,0,0-.294.789.931.931,0,0,0,.294.544,1.52,1.52,0,0,0,.214.148,3.957,3.957,0,0,0,1.338.37l-2.275,2.1A1.728,1.728,0,0,0,3.64,12Z" transform="translate(12 14)" fill="#0099FF"/>
</svg>
