<svg id="Group_13_Copy" data-name="Group 13 Copy" xmlns="http://www.w3.org/2000/svg" xmlns:xlink="http://www.w3.org/1999/xlink" width="46" height="46" viewBox="0 0 46 46">
  <defs>
    <clipPath id="clip-path">
      <rect id="Rectangle" width="46" height="46" rx="14" fill="#D9F7ED"/>
    </clipPath>
  </defs>
  <rect id="Rectangle-2" data-name="Rectangle" width="46" height="46" rx="14" fill="#D9F7ED"/>
  <g id="Group_13_Copy-2" data-name="Group 13 Copy" clip-path="url(#clip-path)">
    <g id="Group" transform="translate(13 8)">
      <path id="Shape" d="M8.206,27.331c-.34-.961-.712-1.984-1.114-3.036A30.507,30.507,0,0,0,2.2,15.79,9.564,9.564,0,0,1,0,9.447,9.957,9.957,0,0,1,9.507.009,9.889,9.889,0,0,1,20,9.718a9.495,9.495,0,0,1-2.29,6.161,28.61,28.61,0,0,0-4.8,8.416c-.4,1.052-.774,2.075-1.114,3.036a1.92,1.92,0,0,1-3.591,0Z" fill="#1EC28F"/>
      <path id="Path" d="M8.213,5.259,5.256,3.328V1.57A1.933,1.933,0,0,0,4.6.13a.52.52,0,0,0-.687,0A1.933,1.933,0,0,0,3.255,1.57V3.328L.3,5.259a.633.633,0,0,0-.3.576v.951a.246.246,0,0,0,.09.173.2.2,0,0,0,.179,0L3.315,5.518l.209,2.276-1.135.663a.5.5,0,0,0-.239.432v.288a.216.216,0,0,0,.06.144.233.233,0,0,0,.149.058l1.344-.2a.617.617,0,0,0,.567.346.721.721,0,0,0,.6-.346l1.344.2c.06,0,.119,0,.149-.058a.216.216,0,0,0,.06-.144V8.89a.5.5,0,0,0-.239-.432L5.047,7.795l.209-2.276L8.3,6.959a.2.2,0,0,0,.179,0,.173.173,0,0,0,.09-.173V5.835A.813.813,0,0,0,8.213,5.259Z" transform="translate(5.714 4.762)" fill="#1EC28F"/>
    </g>
  </g>
</svg>
