<svg id="Group_13_Copy_2" data-name="Group 13 Copy 2" xmlns="http://www.w3.org/2000/svg" width="46" height="46" viewBox="0 0 46 46">
  <rect id="Rectangle" width="46" height="46" rx="14" fill="#FFF5D4"/>
  <g id="Group_42_Copy_3" data-name="Group 42 Copy 3" transform="translate(11 11)">
    <g id="Group_39" data-name="Group 39">
      <path id="Oval" d="M8.6,16.8a8.5,8.5,0,0,0,8.6-8.4A8.5,8.5,0,0,0,8.6,0,8.5,8.5,0,0,0,0,8.4a8.239,8.239,0,0,0,1.841,5.193C2.173,14-.122,17.011.281,17.355s3.5-1.981,3.954-1.717A8.724,8.724,0,0,0,8.6,16.8Z" transform="translate(0.215)" fill="#FFC703"/>
    </g>
    <g id="Group_39-2" data-name="Group 39" transform="translate(22.76 8.56)">
      <g id="Oval-2" data-name="Oval" transform="translate(-0.656 0.52)" fill="#FFC703" stroke-miterlimit="10">
        <path d="M -0.112086184322834 14.42893505096436 C -0.5346671342849731 14.42893505096436 -1.006722569465637 14.16434669494629 -2.062244892120361 13.51491546630859 C -2.395677089691162 13.30976390838623 -2.867127180099487 13.01968669891357 -3.135457038879395 12.88933181762695 C -4.185215473175049 13.45325469970703 -5.3643798828125 13.75000476837158 -6.564234733581543 13.75000476837158 C -10.56189441680908 13.75000476837158 -13.81422519683838 10.49766540527344 -13.81422519683838 6.499995231628418 C -13.81422519683838 2.502335071563721 -10.56189441680908 -0.7499948740005493 -6.564234733581543 -0.7499948740005493 C -2.566564798355103 -0.7499948740005493 0.6857751607894897 2.502335071563721 0.6857751607894897 6.499995231628418 C 0.6857751607894897 8.02773380279541 0.2224477380514145 9.474364280700684 -0.6578074097633362 10.70561218261719 C -0.5267199873924255 10.97383594512939 -0.2668039202690125 11.40847587585449 -0.0958448126912117 11.69435501098633 C 0.1234051883220673 12.06100463867188 0.3501251935958862 12.44012546539307 0.5055751800537109 12.75371551513672 C 0.6406651735305786 13.02621555328369 0.999515175819397 13.75009536743164 0.4614051878452301 14.22012519836426 C 0.3524151742458344 14.31533527374268 0.1644951850175858 14.42884540557861 -0.111774817109108 14.42893505096436 C -0.1118780001997948 14.42893505096436 -0.111982986330986 14.42893505096436 -0.112086184322834 14.42893505096436 Z" stroke="none"/>
        <path d="M -0.1120047718286514 13.67893123626709 C -0.07749608904123306 13.67892074584961 -0.05043191835284233 13.67138004302979 -0.03199481591582298 13.65527534484863 C 0.2727251946926117 13.38910484313965 -1.705694794654846 10.83689498901367 -1.455124855041504 10.51877498626709 C -0.5839748382568359 9.412805557250977 -0.06422481685876846 8.017105102539063 -0.06422481685876846 6.499995231628418 C -0.06422481685876846 2.910145044326782 -2.974374771118164 5.109863195684738e-06 -6.564234733581543 5.109863195684738e-06 C -10.15408515930176 5.109863195684738e-06 -13.06422519683838 2.910145044326782 -13.06422519683838 6.499995231628418 C -13.06422519683838 10.0898551940918 -10.15408515930176 13.00000476837158 -6.564234733581543 13.00000476837158 C -5.359164714813232 13.00000476837158 -4.230684757232666 12.67206478118896 -3.263174772262573 12.10057544708252 C -3.246435642242432 12.0906867980957 -3.224550724029541 12.086012840271 -3.19786548614502 12.086012840271 C -2.706311225891113 12.086012840271 -0.6139461398124695 13.67908573150635 -0.1120047718286514 13.67893123626709 M -0.1121094599366188 15.17893505096436 C -0.7601929306983948 15.17893505096436 -1.329939603805542 14.84606647491455 -2.455264806747437 14.15368556976318 C -2.649835586547852 14.03397178649902 -2.921058654785156 13.86709785461426 -3.148514032363892 13.73554801940918 C -4.21163272857666 14.23738670349121 -5.3788743019104 14.50000476837158 -6.564234733581543 14.50000476837158 C -10.97544479370117 14.50000476837158 -14.56422519683838 10.91121482849121 -14.56422519683838 6.499995231628418 C -14.56422519683838 2.088785171508789 -10.97544479370117 -1.499994874000549 -6.564234733581543 -1.499994874000549 C -2.153014898300171 -1.499994874000549 1.43577516078949 2.088785171508789 1.43577516078949 6.499995231628418 C 1.43577516078949 8.025763511657715 1.016843914985657 9.478363990783691 0.2170021235942841 10.74785995483398 C 0.3274196684360504 10.94083309173584 0.4535020291805267 11.15167236328125 0.547845184803009 11.30943489074707 C 0.7745451927185059 11.68854522705078 1.008965134620667 12.0805549621582 1.177545189857483 12.42059516906738 C 1.302135229110718 12.67192554473877 1.383865237236023 12.88008499145508 1.434765219688416 13.07568550109863 C 1.606045126914978 13.73386478424072 1.426615238189697 14.3728551864624 0.9547951817512512 14.78498554229736 C 0.6641752123832703 15.03888511657715 0.2854351997375488 15.17881488800049 -0.1115748137235641 15.17893505096436 L -0.111554816365242 15.17893505096436 C -0.1117130890488625 15.17893505096436 -0.1119512021541595 15.17893505096436 -0.1121094599366188 15.17893505096436 Z" stroke="none" fill="#FFF5D4"/>
      </g>
    </g>
  </g>
</svg>
