<?xml version="1.0" encoding="UTF-8"?><svg id="a" xmlns="http://www.w3.org/2000/svg" viewBox="0 0 179.75 179.75"><defs><style>.b{fill:#fff;}.c{fill:#1b6bf8;}.d{fill:#001c54;}</style></defs><path class="b" d="M162.72,5.62c6.29,0,11.42,5.12,11.42,11.42V162.72c0,6.29-5.12,11.42-11.42,11.42H17.03c-6.29,0-11.42-5.12-11.42-11.42V17.03c0-6.29,5.12-11.42,11.42-11.42H162.72"/><g><g><path class="c" d="M140.55,114.17l-32.84-57.39c-2.24-3.91-8-3.53-9.71,.64l-18.58,35.8-10.48-17.86c-.68-1.22-1.76-2.2-3.1-2.6-2.42-.73-5.24,.3-6.46,2.85l-20.42,39.51c-2.93,8.32,2.75,10.58,8.19,10.58h86.7c5.92,0,9.62-6.39,6.69-11.53Z"/><path class="d" d="M133.86,128.47H47.16c-4.76,0-8.3-1.44-10.23-4.18-1.83-2.58-2.02-5.98-.57-10.09l.15-.35,20.42-39.51c1.72-3.59,5.82-5.4,9.72-4.23,1.97,.59,3.65,1.98,4.72,3.9l7.91,13.48,16.22-31.25c1.22-2.85,3.88-4.74,6.98-4.95,3.15-.21,6.08,1.36,7.64,4.1l32.84,57.39c1.88,3.28,1.86,7.19-.03,10.46-1.89,3.27-5.28,5.22-9.06,5.22Zm-92.34-12.26c-.53,1.58-.95,3.64-.07,4.88,.83,1.17,2.91,1.84,5.71,1.84h86.7c1.78,0,3.37-.92,4.27-2.46,.89-1.54,.9-3.38,.01-4.92l-32.84-57.39c-.51-.9-1.43-1.4-2.47-1.32-1.03,.07-1.88,.68-2.27,1.64l-.11,.23-20.89,40.26-13.02-22.19c-.39-.7-.93-1.17-1.5-1.34-1.08-.33-2.52,.05-3.16,1.39l-20.37,39.41Z"/></g><g><path class="b" d="M120.21,78.63l-12.5-21.85c-2.24-3.91-8-3.53-9.71,.64l-8.13,15.66"/><path class="d" d="M117.81,80.01l-12.5-21.85c-.51-.9-1.43-1.4-2.47-1.32-1.03,.07-1.88,.68-2.27,1.64l-.11,.23-8.13,15.66-4.92-2.55,8.08-15.56c1.22-2.85,3.88-4.74,6.98-4.95,3.15-.21,6.08,1.36,7.64,4.1l12.5,21.85-4.81,2.75Z"/></g></g><path class="d" d="M162.72,5.62c6.29,0,11.42,5.12,11.42,11.42V162.72c0,6.29-5.12,11.42-11.42,11.42H17.03c-6.29,0-11.42-5.12-11.42-11.42V17.03c0-6.29,5.12-11.42,11.42-11.42H162.72m0-5.62H17.03C7.63,0,0,7.63,0,17.03V162.72c0,9.41,7.63,17.03,17.03,17.03H162.72c9.41,0,17.03-7.63,17.03-17.03V17.03c0-9.41-7.63-17.03-17.03-17.03h0Z"/></svg>